<?xml version="1.0" encoding="UTF-8" standalone="no"?>
<!DOCTYPE svg PUBLIC "-//W3C//DTD SVG 1.0//EN" "http://www.w3.org/TR/2001/PR-SVG-20010719/DTD/svg10.dtd">
<svg width="87cm" height="57cm" viewBox="-811 43 1735 1124" xmlns="http://www.w3.org/2000/svg" xmlns:xlink="http://www.w3.org/1999/xlink">
  <g>
    <ellipse style="fill: #ffffff" cx="224.085" cy="465.838" rx="75.0705" ry="34.9536"/>
    <ellipse style="fill: none; fill-opacity:0; stroke-width: 2; stroke: #000000" cx="224.085" cy="465.838" rx="75.0705" ry="34.9536"/>
    <text font-size="12.8" style="fill: #000000;text-anchor:middle;font-family:sans-serif;font-style:normal;font-weight:normal" x="224.085" y="470.638">
      <tspan x="224.085" y="470.638">Microbial Detritivores</tspan>
    </text>
  </g>
  <g>
    <line style="fill: none; fill-opacity:0; stroke-width: 2; stroke: #1e90ff" x1="242.038" y1="589.532" x2="197.391" y2="502.115"/>
    <polyline style="fill: none; fill-opacity:0; stroke-width: 2; stroke: #1e90ff" points="205.376,506.755 196.374,500.123 196.47,511.303 "/>
  </g>
  <g>
    <path style="fill: none; fill-opacity:0; stroke-width: 2; stroke: #000000" d="M 171.003,441.122 A 13.4909,13.4909 0 1 0 154.729,452.462"/>
    <path style="fill: #000000" d="M 171.003 441.122 C 168.526,440.782 166.389,437.966 166.729,435.489 C 167.068,433.012 169.885,430.875 172.362,431.215 C 174.839,431.555 176.976,434.371 176.636,436.848 C 176.296,439.325 173.479,441.462 171.003,441.122z"/>
    <path style="fill: none; fill-opacity:0; stroke-width: 2; stroke: #000000" d="M 171.003 441.122 C 168.526,440.782 166.389,437.966 166.729,435.489 C 167.068,433.012 169.885,430.875 172.362,431.215 C 174.839,431.555 176.976,434.371 176.636,436.848 C 176.296,439.325 173.479,441.462 171.003,441.122"/>
  </g>
  <g>
    <rect style="fill: #ffffff" x="470.408" y="473.788" width="137.25" height="38"/>
    <rect style="fill: none; fill-opacity:0; stroke-width: 2; stroke: #000000" x="470.408" y="473.788" width="137.25" height="38"/>
    <text font-size="12.8" style="fill: #000000;text-anchor:middle;font-family:sans-serif;font-style:normal;font-weight:normal" x="539.033" y="497.588">
      <tspan x="539.033" y="497.588">Dissolved Oxygen</tspan>
    </text>
  </g>
  <g>
    <rect style="fill: #ffffff" x="565.53" y="569.954" width="116.5" height="38"/>
    <rect style="fill: none; fill-opacity:0; stroke-width: 2; stroke: #000000" x="565.53" y="569.954" width="116.5" height="38"/>
    <text font-size="12.8" style="fill: #000000;text-anchor:middle;font-family:sans-serif;font-style:normal;font-weight:normal" x="623.78" y="593.754">
      <tspan x="623.78" y="593.754">CO2</tspan>
    </text>
  </g>
  <g>
    <rect style="fill: #ffffff" x="526.754" y="691.494" width="114" height="38"/>
    <rect style="fill: none; fill-opacity:0; stroke-width: 2; stroke: #000000" x="526.754" y="691.494" width="114" height="38"/>
    <text font-size="12.8" style="fill: #000000;text-anchor:middle;font-family:sans-serif;font-style:normal;font-weight:normal" x="583.754" y="715.294">
      <tspan x="583.754" y="715.294">Turbidity</tspan>
    </text>
  </g>
  <g>
    <rect style="fill: #ffffff" x="471.816" y="352.2" width="116" height="38"/>
    <rect style="fill: none; fill-opacity:0; stroke-width: 2; stroke: #000000" x="471.816" y="352.2" width="116" height="38"/>
    <text font-size="12.8" style="fill: #000000;text-anchor:middle;font-family:sans-serif;font-style:normal;font-weight:normal" x="529.816" y="376">
      <tspan x="529.816" y="376">Temperature</tspan>
    </text>
  </g>
  <g>
    <rect style="fill: #ffffff" x="110.806" y="326.71" width="120.5" height="42.5"/>
    <rect style="fill: none; fill-opacity:0; stroke-width: 2; stroke: #000000" x="110.806" y="326.71" width="120.5" height="42.5"/>
    <text font-size="12.8" style="fill: #000000;text-anchor:middle;font-family:sans-serif;font-style:normal;font-weight:normal" x="171.056" y="352.76">
      <tspan x="171.056" y="352.76">Nutrients</tspan>
    </text>
  </g>
  <g>
    <rect style="fill: #ffffff" x="453.14" y="241.072" width="114" height="38"/>
    <rect style="fill: none; fill-opacity:0; stroke-width: 2; stroke: #000000" x="453.14" y="241.072" width="114" height="38"/>
    <text font-size="12.8" style="fill: #000000;text-anchor:middle;font-family:sans-serif;font-style:normal;font-weight:normal" x="510.14" y="264.872">
      <tspan x="510.14" y="264.872">Stratification</tspan>
    </text>
  </g>
  <g>
    <line style="fill: none; fill-opacity:0; stroke-width: 2; stroke: #a020f0" x1="470.408" y1="492.788" x2="297.802" y2="453.456"/>
    <path style="fill: #a020f0" d="M 470.408 492.788 C 469.853,495.226 466.86,497.108 464.422,496.552 C 461.985,495.997 460.102,493.004 460.658,490.566 C 461.213,488.129 464.206,486.247 466.644,486.802 C 469.081,487.358 470.963,490.35 470.408,492.788z"/>
    <path style="fill: none; fill-opacity:0; stroke-width: 2; stroke: #a020f0" d="M 470.408 492.788 C 469.853,495.226 466.86,497.108 464.422,496.552 C 461.985,495.997 460.102,493.004 460.658,490.566 C 461.213,488.129 464.206,486.247 466.644,486.802 C 469.081,487.358 470.963,490.35 470.408,492.788"/>
    <polyline style="fill: none; fill-opacity:0; stroke-width: 2; stroke: #a020f0" points="306.483,450.306 295.622,452.959 304.261,460.056 "/>
  </g>
  <g>
    <line style="fill: none; fill-opacity:0; stroke-width: 2; stroke: #1e90ff" x1="561.382" y1="587.281" x2="293.442" y2="479.214"/>
    <polyline style="fill: none; fill-opacity:0; stroke-width: 2; stroke: #1e90ff" points="552.312,589.014 563.456,588.118 556.052,579.74 "/>
  </g>
  <g>
    <line style="fill: none; fill-opacity:0; stroke-width: 2; stroke: #1e90ff" x1="305.132" y1="595.864" x2="466.422" y2="513.816"/>
    <polyline style="fill: none; fill-opacity:0; stroke-width: 2; stroke: #1e90ff" points="461.769,521.792 468.415,512.802 457.235,512.879 "/>
  </g>
  <g>
    <line style="fill: none; fill-opacity:0; stroke-width: 2; stroke: #a020f0" x1="565.53" y1="607.954" x2="322.154" y2="605.387"/>
    <path style="fill: #a020f0" d="M 565.53 607.954 C 565.504,610.454 562.977,612.927 560.478,612.901 C 557.978,612.875 555.504,610.348 555.531,607.849 C 555.557,605.349 558.083,602.875 560.583,602.902 C 563.083,602.928 565.556,605.454 565.53,607.954z"/>
    <path style="fill: none; fill-opacity:0; stroke-width: 2; stroke: #a020f0" d="M 565.53 607.954 C 565.504,610.454 562.977,612.927 560.478,612.901 C 557.978,612.875 555.504,610.348 555.531,607.849 C 555.557,605.349 558.083,602.875 560.583,602.902 C 563.083,602.928 565.556,605.454 565.53,607.954"/>
    <polyline style="fill: none; fill-opacity:0; stroke-width: 2; stroke: #a020f0" points="329.97,600.469 319.918,605.364 329.865,610.469 "/>
  </g>
  <g>
    <line style="fill: none; fill-opacity:0; stroke-width: 2; stroke: #a020f0" x1="522.596" y1="708.847" x2="317.682" y2="627.698"/>
    <polyline style="fill: none; fill-opacity:0; stroke-width: 2; stroke: #a020f0" points="513.537,710.637 524.675,709.671 517.219,701.34 "/>
    <path style="fill: #a020f0" d="M 317.682 627.698 C 318.602,625.374 321.847,623.97 324.172,624.89 C 326.496,625.811 327.9,629.056 326.979,631.38 C 326.059,633.704 322.814,635.108 320.49,634.188 C 318.165,633.267 316.762,630.022 317.682,627.698z"/>
    <path style="fill: none; fill-opacity:0; stroke-width: 2; stroke: #a020f0" d="M 317.682 627.698 C 318.602,625.374 321.847,623.97 324.172,624.89 C 326.496,625.811 327.9,629.056 326.979,631.38 C 326.059,633.704 322.814,635.108 320.49,634.188 C 318.165,633.267 316.762,630.022 317.682,627.698"/>
  </g>
  <g>
    <line style="fill: none; fill-opacity:0; stroke-width: 2; stroke: #a020f0" x1="201.18" y1="369.21" x2="222.529" y2="426.692"/>
    <path style="fill: #a020f0" d="M 201.18 369.21 C 203.524,368.34 206.738,369.813 207.608,372.156 C 208.478,374.5 207.005,377.714 204.662,378.584 C 202.318,379.455 199.104,377.982 198.234,375.638 C 197.363,373.294 198.836,370.08 201.18,369.21z"/>
    <path style="fill: none; fill-opacity:0; stroke-width: 2; stroke: #a020f0" d="M 201.18 369.21 C 203.524,368.34 206.738,369.813 207.608,372.156 C 208.478,374.5 207.005,377.714 204.662,378.584 C 202.318,379.455 199.104,377.982 198.234,375.638 C 197.363,373.294 198.836,370.08 201.18,369.21"/>
    <polyline style="fill: none; fill-opacity:0; stroke-width: 2; stroke: #a020f0" points="215.139,421.154 223.307,428.788 224.513,417.673 "/>
  </g>
  <g>
    <line style="fill: none; fill-opacity:0; stroke-width: 2; stroke: #ff0000" x1="529.816" y1="390.2" x2="539.034" y2="473.788"/>
    <path style="fill: #ff0000" d="M 539.034 473.788 C 536.549,474.062 533.79,471.851 533.516,469.366 C 533.242,466.881 535.453,464.122 537.938,463.848 C 540.423,463.574 543.182,465.785 543.456,468.27 C 543.73,470.755 541.519,473.514 539.034,473.788z"/>
    <path style="fill: none; fill-opacity:0; stroke-width: 2; stroke: #ff0000" d="M 539.034 473.788 C 536.549,474.062 533.79,471.851 533.516,469.366 C 533.242,466.881 535.453,464.122 537.938,463.848 C 540.423,463.574 543.182,465.785 543.456,468.27 C 543.73,470.755 541.519,473.514 539.034,473.788"/>
  </g>
  <g>
    <rect style="fill: #ffffff" x="628.326" y="124.759" width="136.5" height="38"/>
    <rect style="fill: none; fill-opacity:0; stroke-width: 2; stroke: #000000" x="628.326" y="124.759" width="136.5" height="38"/>
    <text font-size="12.8" style="fill: #000000;text-anchor:middle;font-family:sans-serif;font-style:normal;font-weight:normal" x="696.576" y="148.559">
      <tspan x="696.576" y="148.559">Precipitation</tspan>
    </text>
  </g>
  <g>
    <rect style="fill: #ffffff" x="447.186" y="124.916" width="138" height="38"/>
    <rect style="fill: none; fill-opacity:0; stroke-width: 2; stroke: #000000" x="447.186" y="124.916" width="138" height="38"/>
    <text font-size="12.8" style="fill: #000000;text-anchor:middle;font-family:sans-serif;font-style:normal;font-weight:normal" x="516.186" y="148.716">
      <tspan x="516.186" y="148.716">Upwelling</tspan>
    </text>
  </g>
  <g>
    <line style="fill: none; fill-opacity:0; stroke-width: 2; stroke: #1e90ff" x1="757.692" y1="417.4" x2="592.131" y2="372.374"/>
    <polyline style="fill: none; fill-opacity:0; stroke-width: 2; stroke: #1e90ff" points="600.935,369.586 589.974,371.787 598.311,379.236 "/>
  </g>
  <g>
    <line style="fill: none; fill-opacity:0; stroke-width: 2; stroke: #1e90ff" x1="775.14" y1="467.696" x2="685.041" y2="566.647"/>
    <polyline style="fill: none; fill-opacity:0; stroke-width: 2; stroke: #1e90ff" points="686.571,557.54 683.535,568.301 693.965,564.273 "/>
  </g>
  <g>
    <line style="fill: none; fill-opacity:0; stroke-width: 2; stroke: #ff0000" x1="662.452" y1="162.759" x2="587.816" y2="352.2"/>
    <path style="fill: #ff0000" d="M 587.816 352.2 C 585.49,351.284 584.08,348.041 584.997,345.715 C 585.913,343.389 589.156,341.98 591.482,342.896 C 593.808,343.812 595.217,347.055 594.301,349.381 C 593.384,351.707 590.142,353.116 587.816,352.2z"/>
    <path style="fill: none; fill-opacity:0; stroke-width: 2; stroke: #ff0000" d="M 587.816 352.2 C 585.49,351.284 584.08,348.041 584.997,345.715 C 585.913,343.389 589.156,341.98 591.482,342.896 C 593.808,343.812 595.217,347.055 594.301,349.381 C 593.384,351.707 590.142,353.116 587.816,352.2"/>
  </g>
  <g>
    <line style="fill: none; fill-opacity:0; stroke-width: 2; stroke: #1e90ff" x1="628.326" y1="162.759" x2="569.893" y2="237.548"/>
    <polyline style="fill: none; fill-opacity:0; stroke-width: 2; stroke: #1e90ff" points="570.733,228.352 568.517,239.31 578.613,234.508 "/>
  </g>
  <g>
    <line style="fill: none; fill-opacity:0; stroke-width: 2; stroke: #1e90ff" x1="481.686" y1="162.916" x2="481.643" y2="236.6"/>
    <polyline style="fill: none; fill-opacity:0; stroke-width: 2; stroke: #1e90ff" points="476.647,228.833 481.641,238.836 486.647,228.839 "/>
  </g>
  <g>
    <path style="fill: none; fill-opacity:0; stroke-width: 2; stroke: #ff0000" d="M 447.186,162.916 A 101.85,101.85 0 0 0 471.816,352.2"/>
    <path style="fill: #ff0000" d="M 471.816 352.2 C 471.253,354.636 468.254,356.508 465.818,355.945 C 463.382,355.381 461.51,352.382 462.073,349.947 C 462.637,347.511 465.636,345.639 468.071,346.202 C 470.507,346.765 472.379,349.764 471.816,352.2z"/>
    <path style="fill: none; fill-opacity:0; stroke-width: 2; stroke: #ff0000" d="M 471.816 352.2 C 471.253,354.636 468.254,356.508 465.818,355.945 C 463.382,355.381 461.51,352.382 462.073,349.947 C 462.637,347.511 465.636,345.639 468.071,346.202 C 470.507,346.765 472.379,349.764 471.816,352.2"/>
  </g>
  <g>
    <rect style="fill: #ffffff" x="710.314" y="268.828" width="117.032" height="38"/>
    <rect style="fill: none; fill-opacity:0; stroke-width: 2; stroke: #000000" x="710.314" y="268.828" width="117.032" height="38"/>
    <text font-size="12.8" style="fill: #000000;text-anchor:middle;font-family:sans-serif;font-style:normal;font-weight:normal" x="768.83" y="292.628">
      <tspan x="768.83" y="292.628">River Flow</tspan>
    </text>
  </g>
  <g>
    <line style="fill: none; fill-opacity:0; stroke-width: 2; stroke: #1e90ff" x1="696.576" y1="162.759" x2="766.312" y2="265.132"/>
    <polyline style="fill: none; fill-opacity:0; stroke-width: 2; stroke: #1e90ff" points="757.809,261.53 767.571,266.98 766.074,255.9 "/>
  </g>
  <g>
    <path style="fill: none; fill-opacity:0; stroke-width: 2; stroke: #1e90ff" d="M 645.091,711.582 A 225.89,225.89 0 0 0 827.346,306.828"/>
    <polyline style="fill: none; fill-opacity:0; stroke-width: 2; stroke: #1e90ff" points="653.857,708.753 642.917,711.06 651.327,718.427 "/>
  </g>
  <g>
    <path style="fill: none; fill-opacity:0; stroke-width: 2; stroke: #ff0000" d="M 453.14,279.072 A 163.627,163.627 0 0 0 504.72,473.788"/>
    <path style="fill: #ff0000" d="M 504.72 473.788 C 503.209,475.78 499.707,476.261 497.715,474.751 C 495.723,473.24 495.241,469.738 496.752,467.746 C 498.262,465.754 501.765,465.272 503.757,466.783 C 505.749,468.293 506.231,471.796 504.72,473.788z"/>
    <path style="fill: none; fill-opacity:0; stroke-width: 2; stroke: #ff0000" d="M 504.72 473.788 C 503.209,475.78 499.707,476.261 497.715,474.751 C 495.723,473.24 495.241,469.738 496.752,467.746 C 498.262,465.754 501.765,465.272 503.757,466.783 C 505.749,468.293 506.231,471.796 504.72,473.788"/>
  </g>
  <g>
    <line style="fill: none; fill-opacity:0; stroke-width: 2; stroke: #1e90ff" x1="-422.008" y1="834.5" x2="-409.925" y2="767.651"/>
    <polyline style="fill: none; fill-opacity:0; stroke-width: 2; stroke: #1e90ff" points="-406.386,776.18 -409.528,765.45 -416.227,774.402 "/>
  </g>
  <g>
    <line style="fill: none; fill-opacity:0; stroke-width: 2; stroke: #1e90ff" x1="-319.501" y1="642.607" x2="-338.11" y2="663.322"/>
    <polyline style="fill: none; fill-opacity:0; stroke-width: 2; stroke: #1e90ff" points="-320.97,651.724 -318.006,640.943 -328.409,645.041 "/>
  </g>
  <g>
    <line style="fill: none; fill-opacity:0; stroke-width: 2; stroke: #ff0000" x1="-462.686" y1="591.954" x2="-385.212" y2="567.984"/>
    <path style="fill: #ff0000" d="M -462.686 591.954 C -463.425,589.566 -461.776,586.438 -459.387,585.7 C -456.999,584.961 -453.872,586.61 -453.133,588.998 C -452.394,591.387 -454.043,594.514 -456.432,595.253 C -458.82,595.992 -461.947,594.342 -462.686,591.954z"/>
    <path style="fill: none; fill-opacity:0; stroke-width: 2; stroke: #ff0000" d="M -462.686 591.954 C -463.425,589.566 -461.776,586.438 -459.387,585.7 C -456.999,584.961 -453.872,586.61 -453.133,588.998 C -452.394,591.387 -454.043,594.514 -456.432,595.253 C -458.82,595.992 -461.947,594.342 -462.686,591.954"/>
  </g>
  <g>
    <ellipse style="fill: #ffffff" cx="-168.054" cy="977.686" rx="70.3841" ry="34.2505"/>
    <ellipse style="fill: none; fill-opacity:0; stroke-width: 2; stroke: #000000" cx="-168.054" cy="977.686" rx="70.3841" ry="34.2505"/>
    <text font-size="12.8" style="fill: #000000;text-anchor:middle;font-family:sans-serif;font-style:normal;font-weight:normal" x="-168.054" y="982.486">
      <tspan x="-168.054" y="982.486">Marine Mammals</tspan>
    </text>
  </g>
  <g>
    <ellipse style="fill: #ffffff" cx="-119.411" cy="798.304" rx="72.2358" ry="29.676"/>
    <ellipse style="fill: none; fill-opacity:0; stroke-width: 2; stroke: #000000" cx="-119.411" cy="798.304" rx="72.2358" ry="29.676"/>
    <text font-size="12.8" style="fill: #000000;text-anchor:middle;font-family:sans-serif;font-style:normal;font-weight:normal" x="-119.411" y="803.104">
      <tspan x="-119.411" y="803.104">Piscivorous Birds</tspan>
    </text>
  </g>
  <g>
    <ellipse style="fill: #ffffff" cx="-93.803" cy="678.99" rx="69.0144" ry="25.7503"/>
    <ellipse style="fill: none; fill-opacity:0; stroke-width: 2; stroke: #000000" cx="-93.803" cy="678.99" rx="69.0144" ry="25.7503"/>
    <text font-size="12.8" style="fill: #000000;text-anchor:middle;font-family:sans-serif;font-style:normal;font-weight:normal" x="-93.803" y="683.79">
      <tspan x="-93.803" y="683.79">Piscivorous Fish</tspan>
    </text>
  </g>
  <g>
    <line style="fill: none; fill-opacity:0; stroke-width: 2; stroke: #ff0000" x1="-361.782" y1="763.25" x2="-217.822" y2="953.468"/>
    <path style="fill: #ff0000" d="M -361.782 763.25 C -359.789,761.741 -356.286,762.226 -354.778,764.22 C -353.269,766.213 -353.754,769.715 -355.747,771.224 C -357.741,772.733 -361.243,772.248 -362.752,770.254 C -364.26,768.261 -363.775,764.759 -361.782,763.25z"/>
    <path style="fill: none; fill-opacity:0; stroke-width: 2; stroke: #ff0000" d="M -361.782 763.25 C -359.789,761.741 -356.286,762.226 -354.778,764.22 C -353.269,766.213 -353.754,769.715 -355.747,771.224 C -357.741,772.733 -361.243,772.248 -362.752,770.254 C -364.26,768.261 -363.775,764.759 -361.782,763.25"/>
  </g>
  <g>
    <line style="fill: none; fill-opacity:0; stroke-width: 2; stroke: #ff0000" x1="-328.64" y1="738.268" x2="-186.148" y2="786.948"/>
    <path style="fill: #ff0000" d="M -328.64 738.268 C -327.832,735.902 -324.658,734.345 -322.292,735.153 C -319.926,735.961 -318.369,739.135 -319.177,741.501 C -319.985,743.867 -323.159,745.424 -325.525,744.616 C -327.891,743.808 -329.448,740.634 -328.64,738.268z"/>
    <path style="fill: none; fill-opacity:0; stroke-width: 2; stroke: #ff0000" d="M -328.64 738.268 C -327.832,735.902 -324.658,734.345 -322.292,735.153 C -319.926,735.961 -318.369,739.135 -319.177,741.501 C -319.985,743.867 -323.159,745.424 -325.525,744.616 C -327.891,743.808 -329.448,740.634 -328.64,738.268"/>
  </g>
  <g>
    <line style="fill: none; fill-opacity:0; stroke-width: 2; stroke: #ff0000" x1="-328.64" y1="688.304" x2="-157.564" y2="688.844"/>
    <path style="fill: #ff0000" d="M -328.64 688.304 C -328.632,685.804 -326.124,683.312 -323.624,683.32 C -321.124,683.328 -318.632,685.836 -318.64,688.336 C -318.648,690.836 -321.156,693.328 -323.656,693.32 C -326.156,693.312 -328.648,690.804 -328.64,688.304z"/>
    <path style="fill: none; fill-opacity:0; stroke-width: 2; stroke: #ff0000" d="M -328.64 688.304 C -328.632,685.804 -326.124,683.312 -323.624,683.32 C -321.124,683.328 -318.632,685.836 -318.64,688.336 C -318.648,690.836 -321.156,693.328 -323.656,693.32 C -326.156,693.312 -328.648,690.804 -328.64,688.304"/>
  </g>
  <g>
    <ellipse style="fill: #ffffff" cx="69.7843" cy="897.459" rx="56.0253" ry="27.6566"/>
    <ellipse style="fill: none; fill-opacity:0; stroke-width: 2; stroke: #000000" cx="69.7843" cy="897.459" rx="56.0253" ry="27.6566"/>
    <text font-size="12.8" style="fill: #000000;text-anchor:middle;font-family:sans-serif;font-style:normal;font-weight:normal" x="69.7843" y="902.259">
      <tspan x="69.7843" y="902.259">Forage Fish</tspan>
    </text>
  </g>
  <g>
    <path style="fill: none; fill-opacity:0; stroke-width: 2; stroke: #a020f0" d="M -136.764,945.033 A 133.769,133.769 0 0 0 -93.8032,704.74"/>
    <polyline style="fill: none; fill-opacity:0; stroke-width: 2; stroke: #a020f0" points="-130.203,938.589 -138.932,945.575 -128.106,948.366 "/>
    <path style="fill: #a020f0" d="M -93.8032 704.74 C -92.3945,702.675 -88.9205,702.018 -86.8552,703.427 C -84.7898,704.835 -84.1332,708.309 -85.5419,710.375 C -86.9505,712.44 -90.4246,713.097 -92.4899,711.688 C -94.5552,710.279 -95.2119,706.805 -93.8032,704.74z"/>
    <path style="fill: none; fill-opacity:0; stroke-width: 2; stroke: #a020f0" d="M -93.8032 704.74 C -92.3945,702.675 -88.9205,702.018 -86.8552,703.427 C -84.7898,704.835 -84.1332,708.309 -85.5419,710.375 C -86.9505,712.44 -90.4246,713.097 -92.4899,711.688 C -94.5552,710.279 -95.2119,706.805 -93.8032,704.74"/>
  </g>
  <g>
    <path style="fill: none; fill-opacity:0; stroke-width: 2; stroke: #a020f0" d="M -136.661,1008.98 A 298.681,298.681 0 0 0 48.3444,923.01"/>
    <polyline style="fill: none; fill-opacity:0; stroke-width: 2; stroke: #a020f0" points="-129.271,1003.47 -138.888,1009.17 -128.556,1013.44 "/>
    <path style="fill: #a020f0" d="M 48.3444 923.01 C 50.1088,924.781 50.1021,928.317 48.331,930.081 C 46.5599,931.845 43.0244,931.839 41.26,930.068 C 39.4956,928.297 39.5022,924.761 41.2733,922.997 C 43.0444,921.232 46.58,921.239 48.3444,923.01z"/>
    <path style="fill: none; fill-opacity:0; stroke-width: 2; stroke: #a020f0" d="M 48.3444 923.01 C 50.1088,924.781 50.1021,928.317 48.331,930.081 C 46.5599,931.845 43.0244,931.839 41.26,930.068 C 39.4956,928.297 39.5022,924.761 41.2733,922.997 C 43.0444,921.232 46.58,921.239 48.3444,923.01"/>
  </g>
  <g>
    <line style="fill: none; fill-opacity:0; stroke-width: 2; stroke: #a020f0" x1="-64.8106" y1="822.044" x2="18.0237" y2="886.874"/>
    <polyline style="fill: none; fill-opacity:0; stroke-width: 2; stroke: #a020f0" points="-55.615,822.892 -66.5715,820.666 -61.7782,830.767 "/>
    <path style="fill: #a020f0" d="M 18.0237 886.874 C 16.4829,888.843 12.9733,889.271 11.0046,887.73 C 9.03589,886.189 8.60797,882.679 10.1488,880.711 C 11.6896,878.742 15.1991,878.314 17.1679,879.855 C 19.1366,881.396 19.5645,884.905 18.0237,886.874z"/>
    <path style="fill: none; fill-opacity:0; stroke-width: 2; stroke: #a020f0" d="M 18.0237 886.874 C 16.4829,888.843 12.9733,889.271 11.0046,887.73 C 9.03589,886.189 8.60797,882.679 10.1488,880.711 C 11.6896,878.742 15.1991,878.314 17.1679,879.855 C 19.1366,881.396 19.5645,884.905 18.0237,886.874"/>
  </g>
  <g>
    <ellipse style="fill: #ffffff" cx="-246.164" cy="415.595" rx="61.7143" ry="28.9366"/>
    <ellipse style="fill: none; fill-opacity:0; stroke-width: 2; stroke: #000000" cx="-246.164" cy="415.595" rx="61.7143" ry="28.9366"/>
    <text font-size="12.8" style="fill: #000000;text-anchor:middle;font-family:sans-serif;font-style:normal;font-weight:normal" x="-246.164" y="420.395">
      <tspan x="-246.164" y="420.395">Other Salmon</tspan>
    </text>
  </g>
  <g>
    <line style="fill: none; fill-opacity:0; stroke-width: 2; stroke: #a020f0" x1="-121.786" y1="651.013" x2="-202.526" y2="436.056"/>
    <polyline style="fill: none; fill-opacity:0; stroke-width: 2; stroke: #a020f0" points="-129.197,645.503 -121,653.107 -119.836,641.987 "/>
    <path style="fill: #a020f0" d="M -202.526 436.056 C -200.186,435.177 -196.966,436.638 -196.087,438.979 C -195.208,441.319 -196.669,444.538 -199.01,445.417 C -201.35,446.296 -204.57,444.835 -205.449,442.495 C -206.328,440.154 -204.866,436.935 -202.526,436.056z"/>
    <path style="fill: none; fill-opacity:0; stroke-width: 2; stroke: #a020f0" d="M -202.526 436.056 C -200.186,435.177 -196.966,436.638 -196.087,438.979 C -195.208,441.319 -196.669,444.538 -199.01,445.417 C -201.35,446.296 -204.57,444.835 -205.449,442.495 C -206.328,440.154 -204.866,436.935 -202.526,436.056"/>
  </g>
  <g>
    <line style="fill: none; fill-opacity:0; stroke-width: 2; stroke: #a020f0" x1="-148.056" y1="766.529" x2="-222.546" y2="442.33"/>
    <polyline style="fill: none; fill-opacity:0; stroke-width: 2; stroke: #a020f0" points="-154.667,760.082 -147.555,768.709 -144.921,757.843 "/>
    <path style="fill: #a020f0" d="M -222.546 442.33 C -220.109,441.77 -217.113,443.647 -216.553,446.083 C -215.993,448.52 -217.87,451.516 -220.307,452.076 C -222.743,452.636 -225.74,450.759 -226.299,448.323 C -226.859,445.886 -224.983,442.89 -222.546,442.33z"/>
    <path style="fill: none; fill-opacity:0; stroke-width: 2; stroke: #a020f0" d="M -222.546 442.33 C -220.109,441.77 -217.113,443.647 -216.553,446.083 C -215.993,448.52 -217.87,451.516 -220.307,452.076 C -222.743,452.636 -225.74,450.759 -226.299,448.323 C -226.859,445.886 -224.983,442.89 -222.546,442.33"/>
  </g>
  <g>
    <line style="fill: none; fill-opacity:0; stroke-width: 2; stroke: #a020f0" x1="-195.442" y1="941.595" x2="-246.164" y2="444.532"/>
    <polyline style="fill: none; fill-opacity:0; stroke-width: 2; stroke: #a020f0" points="-201.204,934.379 -195.215,943.819 -191.256,933.364 "/>
    <path style="fill: #a020f0" d="M -246.164 444.532 C -243.677,444.278 -240.936,446.512 -240.682,448.999 C -240.428,451.486 -242.662,454.227 -245.149,454.48 C -247.636,454.734 -250.377,452.501 -250.631,450.014 C -250.884,447.527 -248.651,444.786 -246.164,444.532z"/>
    <path style="fill: none; fill-opacity:0; stroke-width: 2; stroke: #a020f0" d="M -246.164 444.532 C -243.677,444.278 -240.936,446.512 -240.682,448.999 C -240.428,451.486 -242.662,454.227 -245.149,454.48 C -247.636,454.734 -250.377,452.501 -250.631,450.014 C -250.884,447.527 -248.651,444.786 -246.164,444.532"/>
  </g>
  <g>
    <ellipse style="fill: #ffffff" cx="269.461" cy="811.191" rx="55.7509" ry="30.9074"/>
    <ellipse style="fill: none; fill-opacity:0; stroke-width: 2; stroke: #000000" cx="269.461" cy="811.191" rx="55.7509" ry="30.9074"/>
    <text font-size="12.8" style="fill: #000000;text-anchor:middle;font-family:sans-serif;font-style:normal;font-weight:normal" x="269.461" y="815.991">
      <tspan x="269.461" y="815.991">Zooplankton</tspan>
    </text>
  </g>
  <g>
    <line style="fill: none; fill-opacity:0; stroke-width: 2; stroke: #a020f0" x1="125.551" y1="884.886" x2="230.04" y2="833.046"/>
    <polyline style="fill: none; fill-opacity:0; stroke-width: 2; stroke: #a020f0" points="130.284,876.957 123.548,885.88 134.728,885.915 "/>
    <path style="fill: #a020f0" d="M 230.04 833.046 C 231.151,835.286 230.023,838.636 227.783,839.747 C 225.544,840.858 222.193,839.73 221.082,837.49 C 219.971,835.251 221.099,831.9 223.339,830.789 C 225.578,829.678 228.929,830.806 230.04,833.046z"/>
    <path style="fill: none; fill-opacity:0; stroke-width: 2; stroke: #a020f0" d="M 230.04 833.046 C 231.151,835.286 230.023,838.636 227.783,839.747 C 225.544,840.858 222.193,839.73 221.082,837.49 C 219.971,835.251 221.099,831.9 223.339,830.789 C 225.578,829.678 228.929,830.806 230.04,833.046"/>
  </g>
  <g>
    <path style="fill: none; fill-opacity:0; stroke-width: 2; stroke: #a020f0" d="M 248.126,782.636 A 633.645,633.645 0 0 0 -198.167,396.134"/>
    <path style="fill: #a020f0" d="M 248.126 782.636 C 245.797,783.546 242.559,782.127 241.649,779.798 C 240.74,777.47 242.158,774.231 244.487,773.322 C 246.816,772.412 250.054,773.831 250.964,776.159 C 251.873,778.488 250.455,781.726 248.126,782.636z"/>
    <path style="fill: none; fill-opacity:0; stroke-width: 2; stroke: #a020f0" d="M 248.126 782.636 C 245.797,783.546 242.559,782.127 241.649,779.798 C 240.74,777.47 242.158,774.231 244.487,773.322 C 246.816,772.412 250.054,773.831 250.964,776.159 C 251.873,778.488 250.455,781.726 248.126,782.636"/>
    <polyline style="fill: none; fill-opacity:0; stroke-width: 2; stroke: #a020f0" points="-189.489,392.952 -200.345,395.626 -191.692,402.706 "/>
  </g>
  <g>
    <ellipse style="fill: #ffffff" cx="357.926" cy="707.233" rx="56.8262" ry="34.9667"/>
    <ellipse style="fill: none; fill-opacity:0; stroke-width: 2; stroke: #000000" cx="357.926" cy="707.233" rx="56.8262" ry="34.9667"/>
    <text font-size="12.8" style="fill: #000000;text-anchor:middle;font-family:sans-serif;font-style:normal;font-weight:normal" x="357.926" y="712.033">
      <tspan x="357.926" y="712.033">Microplankton</tspan>
    </text>
  </g>
  <g>
    <ellipse style="fill: #ffffff" cx="264.193" cy="616.519" rx="57.8953" ry="29.2107"/>
    <ellipse style="fill: none; fill-opacity:0; stroke-width: 2; stroke: #000000" cx="264.193" cy="616.519" rx="57.8953" ry="29.2107"/>
    <text font-size="12.8" style="fill: #000000;text-anchor:middle;font-family:sans-serif;font-style:normal;font-weight:normal" x="264.193" y="621.319">
      <tspan x="264.193" y="621.319">Diatoms</tspan>
    </text>
  </g>
  <g>
    <line style="fill: none; fill-opacity:0; stroke-width: 2; stroke: #ff0000" x1="317.744" y1="682.508" x2="286.35" y2="643.506"/>
    <path style="fill: #ff0000" d="M 286.35 643.506 C 288.297,641.938 291.813,642.318 293.38,644.266 C 294.948,646.213 294.568,649.728 292.62,651.296 C 290.673,652.863 287.158,652.484 285.59,650.536 C 284.023,648.589 284.403,645.074 286.35,643.506z"/>
    <path style="fill: none; fill-opacity:0; stroke-width: 2; stroke: #ff0000" d="M 286.35 643.506 C 288.297,641.938 291.813,642.318 293.38,644.266 C 294.948,646.213 294.568,649.728 292.62,651.296 C 290.673,652.863 287.158,652.484 285.59,650.536 C 284.023,648.589 284.403,645.074 286.35,643.506"/>
  </g>
  <g>
    <path style="fill: none; fill-opacity:0; stroke-width: 2; stroke: #a020f0" d="M 269.551,775.813 A 1093.82,1093.82 0 0 0 264.194,645.73"/>
    <path style="fill: #a020f0" d="M 264.194 645.73 C 266.681,645.479 269.42,647.715 269.671,650.202 C 269.923,652.689 267.687,655.428 265.199,655.679 C 262.712,655.931 259.973,653.695 259.722,651.207 C 259.471,648.72 261.707,645.981 264.194,645.73z"/>
    <path style="fill: none; fill-opacity:0; stroke-width: 2; stroke: #a020f0" d="M 264.194 645.73 C 266.681,645.479 269.42,647.715 269.671,650.202 C 269.923,652.689 267.687,655.428 265.199,655.679 C 262.712,655.931 259.973,653.695 259.722,651.207 C 259.471,648.72 261.707,645.981 264.194,645.73"/>
    <polyline style="fill: none; fill-opacity:0; stroke-width: 2; stroke: #a020f0" points="264.736,767.939 269.51,778.048 274.734,768.163 "/>
  </g>
  <g>
    <path style="fill: none; fill-opacity:0; stroke-width: 2; stroke: #a020f0" d="M -114,952.187 A 198.926,198.926 0 1 0 -264.986,585.808"/>
    <polyline style="fill: none; fill-opacity:0; stroke-width: 2; stroke: #a020f0" points="-107.9,945.289 -116.135,952.852 -105.144,954.902 "/>
  </g>
  <g>
    <path style="fill: none; fill-opacity:0; stroke-width: 2; stroke: #1e90ff" d="M -172.267,773.217 A 355.833,355.833 0 0 0 -299.336,621.456"/>
    <polyline style="fill: none; fill-opacity:0; stroke-width: 2; stroke: #1e90ff" points="-179.884,768.022 -171.365,775.263 -170.684,764.103 "/>
  </g>
  <g>
    <path style="fill: none; fill-opacity:0; stroke-width: 2; stroke: #ff0000" d="M 91.2242,871.908 A 258.495,258.495 0 0 0 -247.812,567.984"/>
    <path style="fill: #ff0000" d="M 91.2242 871.908 C 88.7943,871.32 86.9524,868.302 87.5404,865.872 C 88.1283,863.442 91.1461,861.601 93.576,862.188 C 96.0059,862.776 97.8478,865.794 97.2599,868.224 C 96.6719,870.654 93.6541,872.496 91.2242,871.908z"/>
    <path style="fill: none; fill-opacity:0; stroke-width: 2; stroke: #ff0000" d="M 91.2242 871.908 C 88.7943,871.32 86.9524,868.302 87.5404,865.872 C 88.1283,863.442 91.1461,861.601 93.576,862.188 C 96.0059,862.776 97.8478,865.794 97.2599,868.224 C 96.6719,870.654 93.6541,872.496 91.2242,871.908"/>
  </g>
  <g>
    <path style="fill: none; fill-opacity:0; stroke-width: 2; stroke: #ff0000" d="M 230.04,789.336 A 403.402,403.402 0 0 0 -316.512,567.984"/>
    <path style="fill: #ff0000" d="M 230.04 789.336 C 227.706,790.232 224.476,788.793 223.581,786.459 C 222.685,784.125 224.124,780.895 226.458,780 C 228.792,779.104 232.021,780.543 232.917,782.877 C 233.813,785.211 232.374,788.44 230.04,789.336z"/>
    <path style="fill: none; fill-opacity:0; stroke-width: 2; stroke: #ff0000" d="M 230.04 789.336 C 227.706,790.232 224.476,788.793 223.581,786.459 C 222.685,784.125 224.124,780.895 226.458,780 C 228.792,779.104 232.021,780.543 232.917,782.877 C 233.813,785.211 232.374,788.44 230.04,789.336"/>
  </g>
  <g>
    <path style="fill: none; fill-opacity:0; stroke-width: 2; stroke: #000000" d="M 210.706,627.698 A 11.5456,11.5456 0 1 0 223.256,637.174"/>
    <path style="fill: #000000" d="M 223.256 637.174 C 225.718,636.739 228.615,638.766 229.05,641.228 C 229.485,643.69 227.458,646.586 224.996,647.021 C 222.534,647.456 219.637,645.43 219.202,642.968 C 218.767,640.506 220.794,637.609 223.256,637.174z"/>
    <path style="fill: none; fill-opacity:0; stroke-width: 2; stroke: #000000" d="M 223.256 637.174 C 225.718,636.739 228.615,638.766 229.05,641.228 C 229.485,643.69 227.458,646.586 224.996,647.021 C 222.534,647.456 219.637,645.43 219.202,642.968 C 218.767,640.506 220.794,637.609 223.256,637.174"/>
  </g>
  <g>
    <path style="fill: none; fill-opacity:0; stroke-width: 2; stroke: #000000" d="M 357.926,672.266 A 14.9112,14.9112 0 1 0 336.18,674.928"/>
    <path style="fill: #000000" d="M 336.18 674.928 C 334.563,676.835 331.04,677.125 329.133,675.508 C 327.226,673.891 326.936,670.367 328.553,668.461 C 330.17,666.554 333.693,666.264 335.6,667.881 C 337.507,669.498 337.797,673.021 336.18,674.928z"/>
    <path style="fill: none; fill-opacity:0; stroke-width: 2; stroke: #000000" d="M 336.18 674.928 C 334.563,676.835 331.04,677.125 329.133,675.508 C 327.226,673.891 326.936,670.367 328.553,668.461 C 330.17,666.554 333.693,666.264 335.6,667.881 C 337.507,669.498 337.797,673.021 336.18,674.928"/>
  </g>
  <g>
    <path style="fill: none; fill-opacity:0; stroke-width: 2; stroke: #000000" d="M 290.796,839.746 A 14.1554,14.1554 0 1 0 308.882,833.046"/>
    <path style="fill: #000000" d="M 308.882 833.046 C 309.843,830.738 313.112,829.392 315.42,830.353 C 317.728,831.315 319.074,834.584 318.113,836.891 C 317.152,839.199 313.883,840.546 311.575,839.584 C 309.267,838.623 307.921,835.354 308.882,833.046z"/>
    <path style="fill: none; fill-opacity:0; stroke-width: 2; stroke: #000000" d="M 308.882 833.046 C 309.843,830.738 313.112,829.392 315.42,830.353 C 317.728,831.315 319.074,834.584 318.113,836.891 C 317.152,839.199 313.883,840.546 311.575,839.584 C 309.267,838.623 307.921,835.354 308.882,833.046"/>
  </g>
  <g>
    <path style="fill: none; fill-opacity:0; stroke-width: 2; stroke: #000000" d="M -222.546,388.862 A 15.1275,15.1275 0 1 0 -246.164,386.658"/>
    <path style="fill: #000000" d="M -246.164 386.658 C -248.26,388.021 -251.719,387.288 -253.082,385.192 C -254.445,383.097 -253.712,379.638 -251.616,378.275 C -249.52,376.912 -246.061,377.645 -244.698,379.74 C -243.335,381.836 -244.068,385.295 -246.164,386.658z"/>
    <path style="fill: none; fill-opacity:0; stroke-width: 2; stroke: #000000" d="M -246.164 386.658 C -248.26,388.021 -251.719,387.288 -253.082,385.192 C -254.445,383.097 -253.712,379.638 -251.616,378.275 C -249.52,376.912 -246.061,377.645 -244.698,379.74 C -243.335,381.836 -244.068,385.295 -246.164,386.658"/>
  </g>
  <g>
    <path style="fill: none; fill-opacity:0; stroke-width: 2; stroke: #000000" d="M 69.7844,869.802 A 13.4145,13.4145 0 1 0 48.3444,871.908"/>
    <path style="fill: #000000" d="M 69.7844 869.802 C 67.6409,868.515 66.7841,865.085 68.0707,862.942 C 69.3573,860.798 72.7875,859.941 74.931,861.228 C 77.0745,862.515 77.9313,865.945 76.6447,868.088 C 75.358,870.232 71.9279,871.089 69.7844,869.802z"/>
    <path style="fill: none; fill-opacity:0; stroke-width: 2; stroke: #000000" d="M 69.7844 869.802 C 67.6409,868.515 66.7841,865.085 68.0707,862.942 C 69.3573,860.798 72.7875,859.941 74.931,861.228 C 77.0745,862.515 77.9313,865.945 76.6447,868.088 C 75.358,870.232 71.9279,871.089 69.7844,869.802"/>
  </g>
  <g>
    <path style="fill: none; fill-opacity:0; stroke-width: 2; stroke: #000000" d="M -194.988,1009.33 A 16.1175,16.1175 0 1 0 -168.053,1011.94"/>
    <path style="fill: #000000" d="M -168.053 1011.94 C -165.833,1010.79 -162.464,1011.86 -161.314,1014.08 C -160.163,1016.3 -161.233,1019.66 -163.453,1020.82 C -165.673,1021.97 -169.043,1020.9 -170.193,1018.68 C -171.343,1016.46 -170.273,1013.09 -168.053,1011.94z"/>
    <path style="fill: none; fill-opacity:0; stroke-width: 2; stroke: #000000" d="M -168.053 1011.94 C -165.833,1010.79 -162.464,1011.86 -161.314,1014.08 C -160.163,1016.3 -161.233,1019.66 -163.453,1020.82 C -165.673,1021.97 -169.043,1020.9 -170.193,1018.68 C -171.343,1016.46 -170.273,1013.09 -168.053,1011.94"/>
  </g>
  <g>
    <path style="fill: none; fill-opacity:0; stroke-width: 2; stroke: #000000" d="M -186.148,809.66 A 13.9815,13.9815 0 1 0 -170.489,819.288"/>
    <path style="fill: #000000" d="M -170.489 819.288 C -168.102,818.544 -164.972,820.187 -164.228,822.573 C -163.484,824.96 -165.126,828.091 -167.513,828.835 C -169.9,829.579 -173.03,827.936 -173.774,825.55 C -174.519,823.163 -172.876,820.032 -170.489,819.288z"/>
    <path style="fill: none; fill-opacity:0; stroke-width: 2; stroke: #000000" d="M -170.489 819.288 C -168.102,818.544 -164.972,820.187 -164.228,822.573 C -163.484,824.96 -165.126,828.091 -167.513,828.835 C -169.9,829.579 -173.03,827.936 -173.774,825.55 C -174.519,823.163 -172.876,820.032 -170.489,819.288"/>
  </g>
  <g>
    <path style="fill: none; fill-opacity:0; stroke-width: 2; stroke: #000000" d="M -142.604,697.198 A 14.9735,14.9735 0 1 0 -120.214,702.78"/>
    <path style="fill: #000000" d="M -120.214 702.78 C -117.959,701.7 -114.624,702.874 -113.544,705.129 C -112.464,707.383 -113.638,710.718 -115.893,711.798 C -118.148,712.879 -121.482,711.704 -122.563,709.45 C -123.643,707.195 -122.468,703.86 -120.214,702.78z"/>
    <path style="fill: none; fill-opacity:0; stroke-width: 2; stroke: #000000" d="M -120.214 702.78 C -117.959,701.7 -114.624,702.874 -113.544,705.129 C -112.464,707.383 -113.638,710.718 -115.893,711.798 C -118.148,712.879 -121.482,711.704 -122.563,709.45 C -123.643,707.195 -122.468,703.86 -120.214,702.78"/>
  </g>
  <g>
    <path style="fill: none; fill-opacity:0; stroke-width: 2; stroke: #1e90ff" d="M -431.301,895.43 A 397.039,397.039 0 0 0 248.126,839.746"/>
    <polyline style="fill: none; fill-opacity:0; stroke-width: 2; stroke: #1e90ff" points="-422.779,898.952 -432.601,893.61 -430.982,904.673 "/>
  </g>
  <g>
    <line style="fill: none; fill-opacity:0; stroke-width: 2; stroke: #a020f0" x1="-43.2849" y1="701.327" x2="30.1684" y2="877.902"/>
    <polyline style="fill: none; fill-opacity:0; stroke-width: 2; stroke: #a020f0" points="-35.6864,706.575 -44.1438,699.263 -44.9194,710.416 "/>
    <path style="fill: #a020f0" d="M 30.1684 877.902 C 27.8602,878.862 24.5917,877.514 23.6315,875.206 C 22.6713,872.898 24.0193,869.629 26.3276,868.669 C 28.6358,867.709 31.9043,869.057 32.8645,871.365 C 33.8247,873.673 32.4766,876.942 30.1684,877.902z"/>
    <path style="fill: none; fill-opacity:0; stroke-width: 2; stroke: #a020f0" d="M 30.1684 877.902 C 27.8602,878.862 24.5917,877.514 23.6315,875.206 C 22.6713,872.898 24.0193,869.629 26.3276,868.669 C 28.6358,867.709 31.9043,869.057 32.8645,871.365 C 33.8247,873.673 32.4766,876.942 30.1684,877.902"/>
  </g>
  <g>
    <ellipse style="fill: #ffffff" cx="458.483" cy="854.846" rx="76.5673" ry="32.5336"/>
    <ellipse style="fill: none; fill-opacity:0; stroke-width: 2; stroke: #000000" cx="458.483" cy="854.846" rx="76.5673" ry="32.5336"/>
    <text font-size="12.8" style="fill: #000000;text-anchor:middle;font-family:sans-serif;font-style:normal;font-weight:normal" x="458.483" y="859.646">
      <tspan x="458.483" y="859.646">Gelatinous Zoops</tspan>
    </text>
  </g>
  <g>
    <line style="fill: none; fill-opacity:0; stroke-width: 2; stroke: #a020f0" x1="383.449" y1="841.15" x2="320.968" y2="823.02"/>
    <polyline style="fill: none; fill-opacity:0; stroke-width: 2; stroke: #a020f0" points="374.599,843.788 385.597,841.773 377.386,834.184 "/>
    <path style="fill: #a020f0" d="M 320.968 823.02 C 321.665,820.619 324.762,818.915 327.163,819.611 C 329.564,820.308 331.269,823.406 330.572,825.807 C 329.875,828.208 326.778,829.912 324.377,829.215 C 321.976,828.519 320.271,825.421 320.968,823.02z"/>
    <path style="fill: none; fill-opacity:0; stroke-width: 2; stroke: #a020f0" d="M 320.968 823.02 C 321.665,820.619 324.762,818.915 327.163,819.611 C 329.564,820.308 331.269,823.406 330.572,825.807 C 329.875,828.208 326.778,829.912 324.377,829.215 C 321.976,828.519 320.271,825.421 320.968,823.02"/>
  </g>
  <g>
    <path style="fill: none; fill-opacity:0; stroke-width: 2; stroke: #a020f0" d="M 109.4,917.014 A 1169.41,1169.41 0 0 0 383.466,868.601"/>
    <path style="fill: #a020f0" d="M 109.4 917.014 C 109.261,914.518 111.619,911.883 114.115,911.744 C 116.611,911.605 119.246,913.962 119.385,916.459 C 119.524,918.955 117.166,921.59 114.67,921.729 C 112.174,921.867 109.539,919.51 109.4,917.014z"/>
    <path style="fill: none; fill-opacity:0; stroke-width: 2; stroke: #a020f0" d="M 109.4 917.014 C 109.261,914.518 111.619,911.883 114.115,911.744 C 116.611,911.605 119.246,913.962 119.385,916.459 C 119.524,918.955 117.166,921.59 114.67,921.729 C 112.174,921.867 109.539,919.51 109.4,917.014"/>
    <polyline style="fill: none; fill-opacity:0; stroke-width: 2; stroke: #a020f0" points="377.515,875.668 385.606,867.952 374.579,866.108 "/>
  </g>
  <g>
    <path style="fill: none; fill-opacity:0; stroke-width: 2; stroke: #000000" d="M 487.784,824.788 A 15.4039,15.4039 0 1 0 458.484,822.312"/>
    <path style="fill: #000000" d="M 458.484 822.312 C 456.044,822.854 453.061,820.956 452.518,818.516 C 451.976,816.075 453.874,813.093 456.315,812.55 C 458.755,812.008 461.738,813.906 462.28,816.346 C 462.823,818.787 460.924,821.77 458.484,822.312z"/>
    <path style="fill: none; fill-opacity:0; stroke-width: 2; stroke: #000000" d="M 458.484 822.312 C 456.044,822.854 453.061,820.956 452.518,818.516 C 451.976,816.075 453.874,813.093 456.315,812.55 C 458.755,812.008 461.738,813.906 462.28,816.346 C 462.823,818.787 460.924,821.77 458.484,822.312"/>
  </g>
  <g>
    <path style="fill: none; fill-opacity:0; stroke-width: 2; stroke: #000000" d="M -541,613.168 A 15.8038,15.8038 0 1 0 -525.336,634.38"/>
    <path style="fill: #000000" d="M -525.336 634.38 C -522.988,635.239 -521.499,638.446 -522.358,640.793 C -523.217,643.141 -526.424,644.63 -528.772,643.771 C -531.119,642.912 -532.608,639.706 -531.749,637.358 C -530.891,635.01 -527.684,633.521 -525.336,634.38z"/>
    <path style="fill: none; fill-opacity:0; stroke-width: 2; stroke: #000000" d="M -525.336 634.38 C -522.988,635.239 -521.499,638.446 -522.358,640.793 C -523.217,643.141 -526.424,644.63 -528.772,643.771 C -531.119,642.912 -532.608,639.706 -531.749,637.358 C -530.891,635.01 -527.684,633.521 -525.336,634.38"/>
  </g>
  <g>
    <path style="fill: none; fill-opacity:0; stroke-width: 2; stroke: #000000" d="M -350.862,603.632 A 13.8782,13.8782 0 1 0 -333.686,621.456"/>
    <path style="fill: #000000" d="M -333.686 621.456 C -331.324,622.277 -329.783,625.459 -330.604,627.82 C -331.425,630.182 -334.607,631.723 -336.968,630.902 C -339.33,630.082 -340.871,626.899 -340.05,624.538 C -339.23,622.176 -336.048,620.635 -333.686,621.456z"/>
    <path style="fill: none; fill-opacity:0; stroke-width: 2; stroke: #000000" d="M -333.686 621.456 C -331.324,622.277 -329.783,625.459 -330.604,627.82 C -331.425,630.182 -334.607,631.723 -336.968,630.902 C -339.33,630.082 -340.871,626.899 -340.05,624.538 C -339.23,622.176 -336.048,620.635 -333.686,621.456"/>
  </g>
  <g>
    <path style="fill: none; fill-opacity:0; stroke-width: 2; stroke: #000000" d="M 201.18,326.71 A 15.6717,15.6717 0 1 0 171.056,326.71"/>
    <path style="fill: #000000" d="M 171.056 326.71 C 168.653,327.4 165.56,325.688 164.869,323.285 C 164.179,320.883 165.891,317.789 168.294,317.099 C 170.697,316.408 173.79,318.121 174.48,320.524 C 175.171,322.926 173.459,326.02 171.056,326.71z"/>
    <path style="fill: none; fill-opacity:0; stroke-width: 2; stroke: #000000" d="M 171.056 326.71 C 168.653,327.4 165.56,325.688 164.869,323.285 C 164.179,320.883 165.891,317.789 168.294,317.099 C 170.697,316.408 173.79,318.121 174.48,320.524 C 175.171,322.926 173.459,326.02 171.056,326.71"/>
  </g>
  <g>
    <path style="fill: none; fill-opacity:0; stroke-width: 2; stroke: #000000" d="M 583.754,729.494 A 15.0766,15.0766 0 1 0 612.254,729.494"/>
    <path style="fill: #000000" d="M 612.254 729.494 C 614.617,728.678 617.796,730.224 618.613,732.587 C 619.429,734.95 617.883,738.129 615.52,738.946 C 613.157,739.762 609.977,738.216 609.161,735.853 C 608.345,733.49 609.891,730.31 612.254,729.494z"/>
    <path style="fill: none; fill-opacity:0; stroke-width: 2; stroke: #000000" d="M 612.254 729.494 C 614.617,728.678 617.796,730.224 618.613,732.587 C 619.429,734.95 617.883,738.129 615.52,738.946 C 613.157,739.762 609.977,738.216 609.161,735.853 C 608.345,733.49 609.891,730.31 612.254,729.494"/>
  </g>
  <g>
    <path style="fill: none; fill-opacity:0; stroke-width: 2; stroke: #000000" d="M 652.904,607.954 A 15.302,15.302 0 1 0 682.03,607.954"/>
    <path style="fill: #000000" d="M 682.03 607.954 C 684.409,607.186 687.556,608.798 688.324,611.177 C 689.091,613.557 687.479,616.703 685.1,617.471 C 682.721,618.239 679.574,616.627 678.807,614.248 C 678.039,611.868 679.651,608.722 682.03,607.954z"/>
    <path style="fill: none; fill-opacity:0; stroke-width: 2; stroke: #000000" d="M 682.03 607.954 C 684.409,607.186 687.556,608.798 688.324,611.177 C 689.091,613.557 687.479,616.703 685.1,617.471 C 682.721,618.239 679.574,616.627 678.807,614.248 C 678.039,611.868 679.651,608.722 682.03,607.954"/>
  </g>
  <g>
    <path style="fill: none; fill-opacity:0; stroke-width: 2; stroke: #000000" d="M 573.346,511.788 A 17.7461,17.7461 0 1 0 607.658,511.788"/>
    <path style="fill: #000000" d="M 607.658 511.788 C 610.075,511.149 613.131,512.926 613.77,515.343 C 614.41,517.76 612.632,520.816 610.215,521.455 C 607.799,522.095 604.742,520.317 604.103,517.9 C 603.464,515.484 605.241,512.427 607.658,511.788z"/>
    <path style="fill: none; fill-opacity:0; stroke-width: 2; stroke: #000000" d="M 607.658 511.788 C 610.075,511.149 613.131,512.926 613.77,515.343 C 614.41,517.76 612.632,520.816 610.215,521.455 C 607.799,522.095 604.742,520.317 604.103,517.9 C 603.464,515.484 605.241,512.427 607.658,511.788"/>
  </g>
  <g>
    <path style="fill: none; fill-opacity:0; stroke-width: 2; stroke: #000000" d="M 558.816,390.2 A 14.6127,14.6127 0 1 0 587.816,390.2"/>
    <path style="fill: #000000" d="M 587.816 390.2 C 590.297,389.89 593.087,392.061 593.397,394.542 C 593.707,397.022 591.536,399.813 589.055,400.123 C 586.575,400.433 583.784,398.262 583.474,395.781 C 583.164,393.3 585.335,390.51 587.816,390.2z"/>
    <path style="fill: none; fill-opacity:0; stroke-width: 2; stroke: #000000" d="M 587.816 390.2 C 590.297,389.89 593.087,392.061 593.397,394.542 C 593.707,397.022 591.536,399.813 589.055,400.123 C 586.575,400.433 583.784,398.262 583.474,395.781 C 583.164,393.3 585.335,390.51 587.816,390.2"/>
  </g>
  <g>
    <path style="fill: none; fill-opacity:0; stroke-width: 2; stroke: #000000" d="M 481.64,279.072 A 15.0766,15.0766 0 1 0 510.14,279.072"/>
    <path style="fill: #000000" d="M 510.14 279.072 C 512.503,278.256 515.682,279.802 516.499,282.165 C 517.315,284.528 515.769,287.707 513.406,288.524 C 511.043,289.34 507.863,287.794 507.047,285.431 C 506.231,283.068 507.777,279.888 510.14,279.072z"/>
    <path style="fill: none; fill-opacity:0; stroke-width: 2; stroke: #000000" d="M 510.14 279.072 C 512.503,278.256 515.682,279.802 516.499,282.165 C 517.315,284.528 515.769,287.707 513.406,288.524 C 511.043,289.34 507.863,287.794 507.047,285.431 C 506.231,283.068 507.777,279.888 510.14,279.072"/>
  </g>
  <g>
    <path style="fill: none; fill-opacity:0; stroke-width: 2; stroke: #000000" d="M 516.186,162.916 A 17.4391,17.4391 0 1 0 550.686,162.916"/>
    <path style="fill: #000000" d="M 550.686 162.916 C 553.159,162.549 555.999,164.655 556.366,167.128 C 556.733,169.6 554.627,172.44 552.155,172.808 C 549.682,173.175 546.842,171.069 546.474,168.596 C 546.107,166.123 548.213,163.283 550.686,162.916z"/>
    <path style="fill: none; fill-opacity:0; stroke-width: 2; stroke: #000000" d="M 550.686 162.916 C 553.159,162.549 555.999,164.655 556.366,167.128 C 556.733,169.6 554.627,172.44 552.155,172.808 C 549.682,173.175 546.842,171.069 546.474,168.596 C 546.107,166.123 548.213,163.283 550.686,162.916"/>
  </g>
  <g>
    <path style="fill: none; fill-opacity:0; stroke-width: 2; stroke: #000000" d="M 827.346,297.328 A 12.2563,12.2563 0 1 0 827.346,278.328"/>
    <path style="fill: #000000" d="M 827.346 278.328 C 825.766,276.39 826.125,272.873 828.062,271.293 C 830,269.714 833.518,270.072 835.097,272.01 C 836.677,273.948 836.318,277.465 834.381,279.044 C 832.443,280.624 828.926,280.266 827.346,278.328z"/>
    <path style="fill: none; fill-opacity:0; stroke-width: 2; stroke: #000000" d="M 827.346 278.328 C 825.766,276.39 826.125,272.873 828.062,271.293 C 830,269.714 833.518,270.072 835.097,272.01 C 836.677,273.948 836.318,277.465 834.381,279.044 C 832.443,280.624 828.926,280.266 827.346,278.328"/>
  </g>
  <g>
    <path style="fill: none; fill-opacity:0; stroke-width: 2; stroke: #000000" d="M 764.826,153.259 A 12.2563,12.2563 0 1 0 764.826,134.259"/>
    <path style="fill: #000000" d="M 764.826 134.259 C 763.246,132.321 763.605,128.803 765.542,127.224 C 767.48,125.644 770.998,126.003 772.577,127.94 C 774.157,129.878 773.798,133.396 771.861,134.975 C 769.923,136.555 766.406,136.196 764.826,134.259z"/>
    <path style="fill: none; fill-opacity:0; stroke-width: 2; stroke: #000000" d="M 764.826 134.259 C 763.246,132.321 763.605,128.803 765.542,127.224 C 767.48,125.644 770.998,126.003 772.577,127.94 C 774.157,129.878 773.798,133.396 771.861,134.975 C 769.923,136.555 766.406,136.196 764.826,134.259"/>
  </g>
  <g>
    <path style="fill: none; fill-opacity:0; stroke-width: 2; stroke: #000000" d="M 844.938,400.634 A 13.66,13.66 0 1 0 827.488,383.868"/>
    <path style="fill: #000000" d="M 827.488 383.868 C 825.087,383.17 823.384,380.072 824.082,377.672 C 824.779,375.271 827.877,373.568 830.278,374.265 C 832.679,374.963 834.382,378.061 833.684,380.462 C 832.987,382.862 829.889,384.566 827.488,383.868z"/>
    <path style="fill: none; fill-opacity:0; stroke-width: 2; stroke: #000000" d="M 827.488 383.868 C 825.087,383.17 823.384,380.072 824.082,377.672 C 824.779,375.271 827.877,373.568 830.278,374.265 C 832.679,374.963 834.382,378.061 833.684,380.462 C 832.987,382.862 829.889,384.566 827.488,383.868"/>
  </g>
  <g>
    <path style="fill: none; fill-opacity:0; stroke-width: 2; stroke: #a020f0" d="M 110.806,369.21 A 319.672,319.672 0 0 0 301.294,718.903"/>
    <polyline style="fill: none; fill-opacity:0; stroke-width: 2; stroke: #a020f0" points="292.208,720.644 303.354,719.773 295.969,711.379 "/>
    <path style="fill: #a020f0" d="M 110.806 369.21 C 113.268,369.642 115.299,372.536 114.867,374.998 C 114.435,377.461 111.541,379.492 109.079,379.06 C 106.616,378.628 104.586,375.734 105.017,373.271 C 105.449,370.809 108.343,368.778 110.806,369.21z"/>
    <path style="fill: none; fill-opacity:0; stroke-width: 2; stroke: #a020f0" d="M 110.806 369.21 C 113.268,369.642 115.299,372.536 114.867,374.998 C 114.435,377.461 111.541,379.492 109.079,379.06 C 106.616,378.628 104.586,375.734 105.017,373.271 C 105.449,370.809 108.343,368.778 110.806,369.21"/>
  </g>
  <g>
    <line style="fill: none; fill-opacity:0; stroke-width: 2; stroke: #ff0000" x1="-350.862" y1="567.984" x2="-345.952" y2="516.984"/>
    <path style="fill: #ff0000" d="M -350.862 567.984 C -353.35,567.744 -355.599,565.016 -355.36,562.528 C -355.12,560.039 -352.392,557.79 -349.904,558.03 C -347.415,558.27 -345.166,560.998 -345.406,563.486 C -345.645,565.975 -348.374,568.224 -350.862,567.984z"/>
    <path style="fill: none; fill-opacity:0; stroke-width: 2; stroke: #ff0000" d="M -350.862 567.984 C -353.35,567.744 -355.599,565.016 -355.36,562.528 C -355.12,560.039 -352.392,557.79 -349.904,558.03 C -347.415,558.27 -345.166,560.998 -345.406,563.486 C -345.645,565.975 -348.374,568.224 -350.862,567.984"/>
  </g>
  <g>
    <line style="fill: none; fill-opacity:0; stroke-width: 2; stroke: #ff0000" x1="-558.994" y1="831.31" x2="-492.238" y2="977.388"/>
    <path style="fill: #ff0000" d="M -558.994 831.31 C -556.72,830.271 -553.407,831.506 -552.368,833.779 C -551.329,836.053 -552.564,839.366 -554.838,840.405 C -557.111,841.444 -560.424,840.21 -561.463,837.936 C -562.503,835.662 -561.268,832.349 -558.994,831.31z"/>
    <path style="fill: none; fill-opacity:0; stroke-width: 2; stroke: #ff0000" d="M -558.994 831.31 C -556.72,830.271 -553.407,831.506 -552.368,833.779 C -551.329,836.053 -552.564,839.366 -554.838,840.405 C -557.111,841.444 -560.424,840.21 -561.463,837.936 C -562.503,835.662 -561.268,832.349 -558.994,831.31"/>
  </g>
  <g>
    <line style="fill: none; fill-opacity:0; stroke-width: 2; stroke: #ff0000" x1="-570.486" y1="781.458" x2="-666.59" y2="686.264"/>
    <path style="fill: #ff0000" d="M -570.486 781.458 C -572.245,783.234 -575.781,783.251 -577.557,781.492 C -579.333,779.732 -579.35,776.197 -577.591,774.421 C -575.831,772.644 -572.296,772.628 -570.52,774.387 C -568.743,776.146 -568.727,779.682 -570.486,781.458z"/>
    <path style="fill: none; fill-opacity:0; stroke-width: 2; stroke: #ff0000" d="M -570.486 781.458 C -572.245,783.234 -575.781,783.251 -577.557,781.492 C -579.333,779.732 -579.35,776.197 -577.591,774.421 C -575.831,772.644 -572.296,772.628 -570.52,774.387 C -568.743,776.146 -568.727,779.682 -570.486,781.458"/>
  </g>
  <g>
    <path style="fill: none; fill-opacity:0; stroke-width: 2; stroke: #000000" d="M -402.042,499.956 A 18.1265,18.1265 0 1 0 -373.996,516.984"/>
    <path style="fill: #000000" d="M -373.996 516.984 C -371.51,517.249 -369.29,520.001 -369.555,522.486 C -369.82,524.972 -372.572,527.193 -375.057,526.928 C -377.543,526.662 -379.764,523.911 -379.498,521.425 C -379.233,518.939 -376.482,516.719 -373.996,516.984z"/>
    <path style="fill: none; fill-opacity:0; stroke-width: 2; stroke: #000000" d="M -373.996 516.984 C -371.51,517.249 -369.29,520.001 -369.555,522.486 C -369.82,524.972 -372.572,527.193 -375.057,526.928 C -377.543,526.662 -379.764,523.911 -379.498,521.425 C -379.233,518.939 -376.482,516.719 -373.996,516.984"/>
  </g>
  <g>
    <path style="fill: none; fill-opacity:0; stroke-width: 2; stroke: #000000" d="M -424.02,1003.01 A 13.8652,13.8652 0 1 0 -441.074,990.196"/>
    <path style="fill: #000000" d="M -441.074 990.196 C -443.571,990.319 -446.191,987.944 -446.313,985.447 C -446.436,982.95 -444.061,980.331 -441.564,980.208 C -439.067,980.085 -436.448,982.46 -436.325,984.957 C -436.203,987.454 -438.577,990.073 -441.074,990.196z"/>
    <path style="fill: none; fill-opacity:0; stroke-width: 2; stroke: #000000" d="M -441.074 990.196 C -443.571,990.319 -446.191,987.944 -446.313,985.447 C -446.436,982.95 -444.061,980.331 -441.564,980.208 C -439.067,980.085 -436.448,982.46 -436.325,984.957 C -436.203,987.454 -438.577,990.073 -441.074,990.196"/>
  </g>
  <g>
    <line style="fill: none; fill-opacity:0; stroke-width: 2; stroke: #0000ff" x1="-543.915" y1="817.36" x2="-473.085" y2="870.016"/>
    <polyline style="fill: none; fill-opacity:0; stroke-width: 2; stroke: #0000ff" points="-534.701,817.98 -545.709,816.026 -540.667,826.005 "/>
    <polyline style="fill: none; fill-opacity:0; stroke-width: 2; stroke: #0000ff" points="-482.299,869.396 -471.291,871.35 -476.333,861.371 "/>
  </g>
  <g>
    <line style="fill: none; fill-opacity:0; stroke-width: 2; stroke: #1e90ff" x1="-547.504" y1="781.458" x2="-446.409" y2="739.966"/>
    <polyline style="fill: none; fill-opacity:0; stroke-width: 2; stroke: #1e90ff" points="-451.693,747.539 -444.341,739.117 -455.49,738.288 "/>
  </g>
  <g>
    <path style="fill: none; fill-opacity:0; stroke-width: 2; stroke: #000000" d="M -445.752,834.5 A 13.9615,13.9615 0 1 0 -469.496,834.5"/>
    <path style="fill: #000000" d="M -469.496 834.5 C -471.622,835.816 -475.063,835.005 -476.379,832.879 C -477.694,830.754 -476.884,827.312 -474.758,825.997 C -472.633,824.681 -469.191,825.491 -467.875,827.617 C -466.56,829.743 -467.37,833.184 -469.496,834.5z"/>
    <path style="fill: none; fill-opacity:0; stroke-width: 2; stroke: #000000" d="M -469.496 834.5 C -471.622,835.816 -475.063,835.005 -476.379,832.879 C -477.694,830.754 -476.884,827.312 -474.758,825.997 C -472.633,824.681 -469.191,825.491 -467.875,827.617 C -466.56,829.743 -467.37,833.184 -469.496,834.5"/>
  </g>
  <g>
    <line style="fill: none; fill-opacity:0; stroke-width: 2; stroke: #1e90ff" x1="447.186" y1="134.416" x2="234.645" y2="323.735"/>
    <polyline style="fill: none; fill-opacity:0; stroke-width: 2; stroke: #1e90ff" points="237.117,314.838 232.976,325.223 243.769,322.305 "/>
  </g>
  <g>
    <line style="fill: none; fill-opacity:0; stroke-width: 2; stroke: #a020f0" x1="426.936" y1="820.921" x2="379.672" y2="739.538"/>
    <polyline style="fill: none; fill-opacity:0; stroke-width: 2; stroke: #a020f0" points="418.713,816.718 428.059,822.854 427.361,811.696 "/>
    <path style="fill: #a020f0" d="M 379.672 739.538 C 381.834,738.282 385.251,739.189 386.507,741.351 C 387.762,743.513 386.856,746.93 384.694,748.185 C 382.532,749.441 379.115,748.535 377.859,746.373 C 376.604,744.211 377.51,740.794 379.672,739.538z"/>
    <path style="fill: none; fill-opacity:0; stroke-width: 2; stroke: #a020f0" d="M 379.672 739.538 C 381.834,738.282 385.251,739.189 386.507,741.351 C 387.762,743.513 386.856,746.93 384.694,748.185 C 382.532,749.441 379.115,748.535 377.859,746.373 C 376.604,744.211 377.51,740.794 379.672,739.538"/>
  </g>
  <g>
    <path style="fill: none; fill-opacity:0; stroke-width: 2; stroke: #1e90ff" d="M -146.482,658.555 A 553.792,553.792 0 0 0 -282.162,603.632"/>
    <polyline style="fill: none; fill-opacity:0; stroke-width: 2; stroke: #1e90ff" points="-155.697,658.972 -144.538,659.661 -150.683,650.32 "/>
  </g>
  <g>
    <rect style="fill: #ffffff" x="305.748" y="68.5882" width="121.8" height="38"/>
    <rect style="fill: none; fill-opacity:0; stroke-width: 2; stroke: #000000" x="305.748" y="68.5882" width="121.8" height="38"/>
    <text font-size="12.8" style="fill: #000000;text-anchor:middle;font-family:sans-serif;font-style:normal;font-weight:normal" x="366.648" y="92.3882">
      <tspan x="366.648" y="92.3882">Winter Storms</tspan>
    </text>
  </g>
  <g>
    <line style="fill: none; fill-opacity:0; stroke-width: 2; stroke: #ff0000" x1="377.903" y1="107.561" x2="453.14" y2="241.072"/>
    <path style="fill: #ff0000" d="M 453.14 241.072 C 450.962,242.299 447.557,241.349 446.329,239.171 C 445.102,236.993 446.053,233.587 448.231,232.36 C 450.409,231.133 453.814,232.083 455.041,234.261 C 456.269,236.439 455.318,239.845 453.14,241.072z"/>
    <path style="fill: none; fill-opacity:0; stroke-width: 2; stroke: #ff0000" d="M 453.14 241.072 C 450.962,242.299 447.557,241.349 446.329,239.171 C 445.102,236.993 446.053,233.587 448.231,232.36 C 450.409,231.133 453.814,232.083 455.041,234.261 C 456.269,236.439 455.318,239.845 453.14,241.072"/>
  </g>
  <g>
    <path style="fill: none; fill-opacity:0; stroke-width: 2; stroke: #000000" d="M 305.748,78.0882 A 12.2563,12.2563 0 1 0 305.748,97.0882"/>
    <path style="fill: #000000" d="M 305.748 97.0882 C 307.328,99.026 306.969,102.543 305.032,104.123 C 303.094,105.702 299.576,105.344 297.997,103.406 C 296.417,101.469 296.776,97.9513 298.713,96.3717 C 300.651,94.7922 304.168,95.1504 305.748,97.0882z"/>
    <path style="fill: none; fill-opacity:0; stroke-width: 2; stroke: #000000" d="M 305.748 97.0882 C 307.328,99.026 306.969,102.543 305.032,104.123 C 303.094,105.702 299.576,105.344 297.997,103.406 C 296.417,101.469 296.776,97.9513 298.713,96.3717 C 300.651,94.7922 304.168,95.1504 305.748,97.0882"/>
  </g>
  <g>
    <ellipse style="fill: #ffffff" cx="222.942" cy="1032.8" rx="68.448" ry="25.5386"/>
    <ellipse style="fill: none; fill-opacity:0; stroke-width: 2; stroke: #000000" cx="222.942" cy="1032.8" rx="68.448" ry="25.5386"/>
    <text font-size="12.8" style="fill: #000000;text-anchor:middle;font-family:sans-serif;font-style:normal;font-weight:normal" x="222.942" y="1037.6">
      <tspan x="222.942" y="1037.6">Ichthyoplankton</tspan>
    </text>
  </g>
  <g>
    <line style="fill: none; fill-opacity:0; stroke-width: 2; stroke: #a020f0" x1="424.017" y1="888.488" x2="286.18" y2="1023.03"/>
    <polyline style="fill: none; fill-opacity:0; stroke-width: 2; stroke: #a020f0" points="421.954,897.489 425.617,886.926 414.969,890.333 "/>
    <path style="fill: #a020f0" d="M 286.18 1023.03 C 284.434,1021.24 284.476,1017.71 286.265,1015.96 C 288.055,1014.22 291.59,1014.26 293.336,1016.05 C 295.082,1017.84 295.04,1021.37 293.251,1023.12 C 291.462,1024.86 287.926,1024.82 286.18,1023.03z"/>
    <path style="fill: none; fill-opacity:0; stroke-width: 2; stroke: #a020f0" d="M 286.18 1023.03 C 284.434,1021.24 284.476,1017.71 286.265,1015.96 C 288.055,1014.22 291.59,1014.26 293.336,1016.05 C 295.082,1017.84 295.04,1021.37 293.251,1023.12 C 291.462,1024.86 287.926,1024.82 286.18,1023.03"/>
  </g>
  <g>
    <line style="fill: none; fill-opacity:0; stroke-width: 2; stroke: #a020f0" x1="249.676" y1="1004.77" x2="269.46" y2="842.098"/>
    <polyline style="fill: none; fill-opacity:0; stroke-width: 2; stroke: #a020f0" points="245.65,996.46 249.406,1006.99 255.577,997.667 "/>
    <path style="fill: #a020f0" d="M 269.46 842.098 C 271.942,842.4 274.122,845.183 273.82,847.665 C 273.518,850.147 270.734,852.327 268.253,852.025 C 265.771,851.723 263.591,848.939 263.893,846.458 C 264.195,843.976 266.978,841.796 269.46,842.098z"/>
    <path style="fill: none; fill-opacity:0; stroke-width: 2; stroke: #a020f0" d="M 269.46 842.098 C 271.942,842.4 274.122,845.183 273.82,847.665 C 273.518,850.147 270.734,852.327 268.253,852.025 C 265.771,851.723 263.591,848.939 263.893,846.458 C 264.195,843.976 266.978,841.796 269.46,842.098"/>
  </g>
  <g>
    <path style="fill: none; fill-opacity:0; stroke-width: 2; stroke: #0000ff" d="M 174.483,1010.27 A 366.029,366.029 0 0 0 -26.0409,690.841"/>
    <polyline style="fill: none; fill-opacity:0; stroke-width: 2; stroke: #0000ff" points="-16.8553,689.753 -28.0354,689.83 -21.2657,698.728 "/>
    <polyline style="fill: none; fill-opacity:0; stroke-width: 2; stroke: #0000ff" points="169.455,1002.55 174.526,1012.51 179.455,1002.47 "/>
  </g>
  <g>
    <path style="fill: none; fill-opacity:0; stroke-width: 2; stroke: #1e90ff" d="M -384.403,767.596 A 523.888,523.888 0 0 0 640.754,729.494"/>
    <polyline style="fill: none; fill-opacity:0; stroke-width: 2; stroke: #1e90ff" points="-377.761,773.997 -384.939,765.425 -387.489,776.311 "/>
  </g>
  <g>
    <path style="fill: none; fill-opacity:0; stroke-width: 2; stroke: #000000" d="M 222.942,1058.34 A 15.7762,15.7762 0 1 0 249.136,1056.4"/>
    <path style="fill: #000000" d="M 249.136 1056.4 C 251.109,1054.86 254.617,1055.3 256.153,1057.27 C 257.688,1059.25 257.251,1062.76 255.278,1064.29 C 253.305,1065.83 249.797,1065.39 248.261,1063.42 C 246.726,1061.44 247.163,1057.94 249.136,1056.4z"/>
    <path style="fill: none; fill-opacity:0; stroke-width: 2; stroke: #000000" d="M 249.136 1056.4 C 251.109,1054.86 254.617,1055.3 256.153,1057.27 C 257.688,1059.25 257.251,1062.76 255.278,1064.29 C 253.305,1065.83 249.797,1065.39 248.261,1063.42 C 246.726,1061.44 247.163,1057.94 249.136,1056.4"/>
  </g>
  <text font-size="12.8" style="fill: #000000;text-anchor:start;font-family:sans-serif;font-style:normal;font-weight:normal" x="-325.936" y="740.808">
    <tspan x="-325.936" y="740.808"></tspan>
  </text>
  <g>
    <path style="fill: none; fill-opacity:0; stroke-width: 2; stroke: #1e90ff" d="M -443.831,914.906 A 402.637,402.637 0 0 0 174.542,1050.86"/>
    <polyline style="fill: none; fill-opacity:0; stroke-width: 2; stroke: #1e90ff" points="-436.029,919.823 -444.802,912.892 -445.083,924.069 "/>
  </g>
  <g>
    <path style="fill: none; fill-opacity:0; stroke-width: 2; stroke: #1e90ff" d="M -417.797,874.19 A 924.581,924.581 0 0 0 30.1684,917.014"/>
    <polyline style="fill: none; fill-opacity:0; stroke-width: 2; stroke: #1e90ff" points="-408.801,872.13 -419.904,873.442 -412.192,881.537 "/>
  </g>
  <g>
    <path style="fill: none; fill-opacity:0; stroke-width: 2; stroke: #ff0000" d="M 222.942,1007.27 A 388.044,388.044 0 0 0 -282.162,567.984"/>
    <path style="fill: #ff0000" d="M 222.942 1007.27 C 220.485,1006.81 218.488,1003.89 218.949,1001.43 C 219.409,998.973 222.327,996.977 224.784,997.437 C 227.241,997.898 229.238,1000.82 228.777,1003.27 C 228.317,1005.73 225.399,1007.73 222.942,1007.27z"/>
    <path style="fill: none; fill-opacity:0; stroke-width: 2; stroke: #ff0000" d="M 222.942 1007.27 C 220.485,1006.81 218.488,1003.89 218.949,1001.43 C 219.409,998.973 222.327,996.977 224.784,997.437 C 227.241,997.898 229.238,1000.82 228.777,1003.27 C 228.317,1005.73 225.399,1007.73 222.942,1007.27"/>
  </g>
  <g>
    <path style="fill: none; fill-opacity:0; stroke-width: 2; stroke: #1e90ff" d="M 470.408,473.788 A 560.151,560.151 0 0 0 -476.387,566.722"/>
    <polyline style="fill: none; fill-opacity:0; stroke-width: 2; stroke: #1e90ff" points="-477.523,557.548 -477.376,568.727 -468.521,561.902 "/>
  </g>
  <g>
    <path style="fill: none; fill-opacity:0; stroke-width: 2; stroke: #ff0000" d="M 529.816,352.2 A 700.158,700.158 0 0 0 -509.674,570.74"/>
    <path style="fill: #ff0000" d="M -509.674 570.74 C -511.865,569.536 -512.852,566.141 -511.648,563.95 C -510.444,561.759 -507.049,560.772 -504.858,561.976 C -502.667,563.18 -501.68,566.575 -502.884,568.766 C -504.088,570.957 -507.483,571.944 -509.674,570.74z"/>
    <path style="fill: none; fill-opacity:0; stroke-width: 2; stroke: #ff0000" d="M -509.674 570.74 C -511.865,569.536 -512.852,566.141 -511.648,563.95 C -510.444,561.759 -507.049,560.772 -504.858,561.976 C -502.667,563.18 -501.68,566.575 -502.884,568.766 C -504.088,570.957 -507.483,571.944 -509.674,570.74"/>
  </g>
  <g>
    <line style="fill: none; fill-opacity:0; stroke-width: 2; stroke: #1e90ff" x1="-494.012" y1="634.38" x2="-445.368" y2="685.077"/>
    <polyline style="fill: none; fill-opacity:0; stroke-width: 2; stroke: #1e90ff" points="-454.351,682.937 -443.82,686.691 -447.136,676.013 "/>
  </g>
  <g>
    <rect style="fill: #ffffff" x="214.934" y="137.176" width="67.9" height="38"/>
    <rect style="fill: none; fill-opacity:0; stroke-width: 2; stroke: #000000" x="214.934" y="137.176" width="67.9" height="38"/>
    <text font-size="12.8" style="fill: #000000;text-anchor:middle;font-family:sans-serif;font-style:normal;font-weight:normal" x="248.884" y="160.976">
      <tspan x="248.884" y="160.976">Sunlight</tspan>
    </text>
  </g>
  <g>
    <line style="fill: none; fill-opacity:0; stroke-width: 2; stroke: #ff0000" x1="283.758" y1="136.37" x2="336.198" y2="106.588"/>
    <path style="fill: #ff0000" d="M 283.758 136.37 C 282.524,134.196 283.463,130.788 285.637,129.553 C 287.811,128.319 291.219,129.258 292.454,131.432 C 293.689,133.606 292.749,137.014 290.575,138.249 C 288.402,139.483 284.993,138.544 283.758,136.37z"/>
    <path style="fill: none; fill-opacity:0; stroke-width: 2; stroke: #ff0000" d="M 283.758 136.37 C 282.524,134.196 283.463,130.788 285.637,129.553 C 287.811,128.319 291.219,129.258 292.454,131.432 C 293.689,133.606 292.749,137.014 290.575,138.249 C 288.402,139.483 284.993,138.544 283.758,136.37"/>
  </g>
  <g>
    <path style="fill: none; fill-opacity:0; stroke-width: 2; stroke: #1e90ff" d="M 248.884,175.176 A 267.808,267.808 0 0 0 467.395,380.026"/>
    <polyline style="fill: none; fill-opacity:0; stroke-width: 2; stroke: #1e90ff" points="458.992,383.905 469.603,380.381 460.418,374.007 "/>
  </g>
  <g>
    <path style="fill: none; fill-opacity:0; stroke-width: 2; stroke: #1e90ff" d="M 214.934,175.176 A 225.939,225.939 0 0 0 206.477,603.888"/>
    <polyline style="fill: none; fill-opacity:0; stroke-width: 2; stroke: #1e90ff" points="197.517,606.225 208.584,604.635 200.672,596.735 "/>
  </g>
  <g>
    <path style="fill: none; fill-opacity:0; stroke-width: 2; stroke: #1e90ff" d="M 659.986,121.029 A 174.448,174.448 0 0 0 427.548,68.5882"/>
    <polyline style="fill: none; fill-opacity:0; stroke-width: 2; stroke: #1e90ff" points="651.628,117.171 661.243,122.878 660.039,111.762 "/>
  </g>
  <g>
    <path style="fill: none; fill-opacity:0; stroke-width: 2; stroke: #1e90ff" d="M 512.973,121.808 A 127.199,127.199 0 0 0 427.548,87.5882"/>
    <polyline style="fill: none; fill-opacity:0; stroke-width: 2; stroke: #1e90ff" points="504.003,119.789 514.606,123.333 511.08,112.724 "/>
  </g>
  <g>
    <line style="fill: none; fill-opacity:0; stroke-width: 2; stroke: #1e90ff" x1="558.816" y1="352.2" x2="539.829" y2="283.383"/>
    <polyline style="fill: none; fill-opacity:0; stroke-width: 2; stroke: #1e90ff" points="546.714,289.538 539.235,281.228 537.074,292.197 "/>
  </g>
  <g>
    <path style="fill: none; fill-opacity:0; stroke-width: 2; stroke: #ff0000" d="M 607.658,473.788 A 197.877,197.877 0 0 0 585.186,143.916"/>
    <path style="fill: #ff0000" d="M 607.658 473.788 C 606.145,471.798 606.623,468.294 608.614,466.782 C 610.604,465.269 614.107,465.747 615.62,467.737 C 617.132,469.728 616.655,473.231 614.664,474.744 C 612.674,476.256 609.171,475.778 607.658,473.788z"/>
    <path style="fill: none; fill-opacity:0; stroke-width: 2; stroke: #ff0000" d="M 607.658 473.788 C 606.145,471.798 606.623,468.294 608.614,466.782 C 610.604,465.269 614.107,465.747 615.62,467.737 C 617.132,469.728 616.655,473.231 614.664,474.744 C 612.674,476.256 609.171,475.778 607.658,473.788"/>
  </g>
  <g>
    <line style="fill: none; fill-opacity:0; stroke-width: 2; stroke: #1e90ff" x1="471.816" y1="390.2" x2="281.495" y2="439.99"/>
    <polyline style="fill: none; fill-opacity:0; stroke-width: 2; stroke: #1e90ff" points="287.74,433.188 279.331,440.556 290.271,442.862 "/>
  </g>
  <g>
    <line style="fill: none; fill-opacity:0; stroke-width: 2; stroke: #1e90ff" x1="500.816" y1="390.2" x2="289.626" y2="586.487"/>
    <polyline style="fill: none; fill-opacity:0; stroke-width: 2; stroke: #1e90ff" points="291.909,577.539 287.988,588.01 298.717,584.864 "/>
  </g>
  <g>
    <path style="fill: none; fill-opacity:0; stroke-width: 2; stroke: #1e90ff" d="M 401.61,734.738 A 203.138,203.138 0 1 0 587.816,380.7"/>
    <polyline style="fill: none; fill-opacity:0; stroke-width: 2; stroke: #1e90ff" points="410.759,735.788 399.844,733.367 404.456,743.552 "/>
  </g>
  <g>
    <line style="fill: none; fill-opacity:0; stroke-width: 2; stroke: #a020f0" x1="504.72" y1="511.788" x2="400.477" y2="678.715"/>
    <path style="fill: #a020f0" d="M 504.72 511.788 C 506.84,513.112 507.637,516.557 506.313,518.677 C 504.988,520.798 501.544,521.594 499.423,520.27 C 497.303,518.946 496.506,515.501 497.831,513.381 C 499.155,511.26 502.6,510.464 504.72,511.788z"/>
    <path style="fill: none; fill-opacity:0; stroke-width: 2; stroke: #a020f0" d="M 504.72 511.788 C 506.84,513.112 507.637,516.557 506.313,518.677 C 504.988,520.798 501.544,521.594 499.423,520.27 C 497.303,518.946 496.506,515.501 497.831,513.381 C 499.155,511.26 502.6,510.464 504.72,511.788"/>
    <polyline style="fill: none; fill-opacity:0; stroke-width: 2; stroke: #a020f0" points="400.348,669.481 399.292,680.611 408.83,674.778 "/>
  </g>
  <g>
    <path style="fill: none; fill-opacity:0; stroke-width: 2; stroke: #1e90ff" d="M 329.671,810.854 A 237.841,237.841 0 0 0 539.034,511.788"/>
    <polyline style="fill: none; fill-opacity:0; stroke-width: 2; stroke: #1e90ff" points="337.09,805.392 327.443,811.044 337.753,815.37 "/>
  </g>
  <g>
    <line style="fill: none; fill-opacity:0; stroke-width: 2; stroke: #1e90ff" x1="453.14" y1="260.072" x2="266.43" y2="583.435"/>
    <polyline style="fill: none; fill-opacity:0; stroke-width: 2; stroke: #1e90ff" points="265.982,574.211 265.312,585.372 274.642,579.212 "/>
  </g>
  <g>
    <path style="fill: none; fill-opacity:0; stroke-width: 2; stroke: #1e90ff" d="M 379.672,674.928 A 149.908,149.908 0 0 0 281.442,491.866"/>
    <polyline style="fill: none; fill-opacity:0; stroke-width: 2; stroke: #1e90ff" points="290.313,489.169 279.315,491.178 287.522,498.771 "/>
  </g>
  <g>
    <path style="fill: none; fill-opacity:0; stroke-width: 2; stroke: #1e90ff" d="M 590.471,609.535 A 1327.09,1327.09 0 0 0 410.426,693.852"/>
    <polyline style="fill: none; fill-opacity:0; stroke-width: 2; stroke: #1e90ff" points="584.96,616.94 592.561,608.741 581.441,607.58 "/>
  </g>
  <g>
    <path style="fill: none; fill-opacity:0; stroke-width: 2; stroke: #1e90ff" d="M 404.342,831.84 A 2971.19,2971.19 0 0 0 -180.513,417.718"/>
    <polyline style="fill: none; fill-opacity:0; stroke-width: 2; stroke: #1e90ff" points="-171.305,416.992 -182.48,416.656 -176.044,425.798 "/>
  </g>
  <g>
    <path style="fill: none; fill-opacity:0; stroke-width: 2; stroke: #a020f0" d="M 196.748,1009.21 A 687.451,687.451 0 0 0 -185.132,428.639"/>
    <polyline style="fill: none; fill-opacity:0; stroke-width: 2; stroke: #a020f0" points="-175.956,427.524 -187.136,427.648 -180.33,436.518 "/>
    <path style="fill: #a020f0" d="M 196.748 1009.21 C 194.252,1009.34 191.625,1006.97 191.495,1004.48 C 191.366,1001.98 193.732,999.353 196.229,999.223 C 198.726,999.094 201.352,1001.46 201.482,1003.96 C 201.612,1006.45 199.245,1009.08 196.748,1009.21z"/>
    <path style="fill: none; fill-opacity:0; stroke-width: 2; stroke: #a020f0" d="M 196.748 1009.21 C 194.252,1009.34 191.625,1006.97 191.495,1004.48 C 191.366,1001.98 193.732,999.353 196.229,999.223 C 198.726,999.094 201.352,1001.46 201.482,1003.96 C 201.612,1006.45 199.245,1009.08 196.748,1009.21"/>
  </g>
  <g>
    <path style="fill: none; fill-opacity:0; stroke-width: 2; stroke: #ff0000" d="M -289.802,436.056 A 274.671,274.671 0 0 0 -650.262,627.834"/>
    <path style="fill: #ff0000" d="M -289.802 436.056 C -290.657,438.405 -293.861,439.9 -296.21,439.045 C -298.56,438.19 -300.054,434.986 -299.199,432.637 C -298.344,430.287 -295.14,428.793 -292.791,429.648 C -290.442,430.503 -288.947,433.707 -289.802,436.056z"/>
    <path style="fill: none; fill-opacity:0; stroke-width: 2; stroke: #ff0000" d="M -289.802 436.056 C -290.657,438.405 -293.861,439.9 -296.21,439.045 C -298.56,438.19 -300.054,434.986 -299.199,432.637 C -298.344,430.287 -295.14,428.793 -292.791,429.648 C -290.442,430.503 -288.947,433.707 -289.802,436.056"/>
  </g>
  <g>
    <path style="fill: none; fill-opacity:0; stroke-width: 2; stroke: #1e90ff" d="M -307.316,402.822 A 341.658,341.658 0 0 0 -776.486,734.644"/>
    <polyline style="fill: none; fill-opacity:0; stroke-width: 2; stroke: #1e90ff" points="-316.398,404.407 -305.243,403.658 -312.535,395.184 "/>
  </g>
  <g>
    <path style="fill: none; fill-opacity:0; stroke-width: 2; stroke: #ff0000" d="M -634.102,662.752 A 1358.46,1358.46 0 0 0 18.0237,908.042"/>
    <path style="fill: #ff0000" d="M 18.0237 908.042 C 17.773,910.529 15.035,912.766 12.5476,912.515 C 10.0602,912.265 7.82344,909.527 8.07409,907.039 C 8.32474,904.552 11.0628,902.315 13.5502,902.566 C 16.0376,902.817 18.2744,905.555 18.0237,908.042z"/>
    <path style="fill: none; fill-opacity:0; stroke-width: 2; stroke: #ff0000" d="M 18.0237 908.042 C 17.773,910.529 15.035,912.766 12.5476,912.515 C 10.0602,912.265 7.82344,909.527 8.07409,907.039 C 8.32474,904.552 11.0628,902.315 13.5502,902.566 C 16.0376,902.817 18.2744,905.555 18.0237,908.042"/>
  </g>
  <g>
    <line style="fill: none; fill-opacity:0; stroke-width: 2; stroke: #ff0000" x1="-703.376" y1="768.712" x2="-604.956" y2="798.076"/>
    <path style="fill: #ff0000" d="M -604.956 798.076 C -605.671,800.472 -608.781,802.153 -611.177,801.438 C -613.572,800.723 -615.253,797.613 -614.539,795.217 C -613.824,792.821 -610.713,791.14 -608.318,791.855 C -605.922,792.57 -604.241,795.68 -604.956,798.076z"/>
    <path style="fill: none; fill-opacity:0; stroke-width: 2; stroke: #ff0000" d="M -604.956 798.076 C -605.671,800.472 -608.781,802.153 -611.177,801.438 C -613.572,800.723 -615.253,797.613 -614.539,795.217 C -613.824,792.821 -610.713,791.14 -608.318,791.855 C -605.922,792.57 -604.241,795.68 -604.956,798.076"/>
  </g>
  <g>
    <path style="fill: none; fill-opacity:0; stroke-width: 2; stroke: #1e90ff" d="M -674.132,746 A 1139.4,1139.4 0 0 0 -371.643,588.451"/>
    <polyline style="fill: none; fill-opacity:0; stroke-width: 2; stroke: #1e90ff" points="-374.929,597.087 -369.837,587.133 -380.855,589.032 "/>
  </g>
  <g>
    <path style="fill: none; fill-opacity:0; stroke-width: 2; stroke: #000000" d="M -761.864,768.712 A 15.6056,15.6056 0 1 0 -747.242,780.068"/>
    <path style="fill: #000000" d="M -747.242 780.068 C -744.836,779.388 -741.751,781.114 -741.071,783.52 C -740.391,785.925 -742.116,789.011 -744.522,789.691 C -746.928,790.371 -750.014,788.645 -750.694,786.239 C -751.374,783.834 -749.648,780.748 -747.242,780.068z"/>
    <path style="fill: none; fill-opacity:0; stroke-width: 2; stroke: #000000" d="M -747.242 780.068 C -744.836,779.388 -741.751,781.114 -741.071,783.52 C -740.391,785.925 -742.116,789.011 -744.522,789.691 C -746.928,790.371 -750.014,788.645 -750.694,786.239 C -751.374,783.834 -749.648,780.748 -747.242,780.068"/>
  </g>
  <g>
    <path style="fill: none; fill-opacity:0; stroke-width: 2; stroke: #000000" d="M 265.86,137.176 A 17.2038,17.2038 0 1 0 231.91,137.176"/>
    <path style="fill: #000000" d="M 231.91 137.176 C 229.443,137.583 226.57,135.522 226.164,133.056 C 225.757,130.589 227.818,127.716 230.285,127.309 C 232.751,126.903 235.624,128.963 236.031,131.43 C 236.437,133.897 234.377,136.77 231.91,137.176z"/>
    <path style="fill: none; fill-opacity:0; stroke-width: 2; stroke: #000000" d="M 231.91 137.176 C 229.443,137.583 226.57,135.522 226.164,133.056 C 225.757,130.589 227.818,127.716 230.285,127.309 C 232.751,126.903 235.624,128.963 236.031,131.43 C 236.437,133.897 234.377,136.77 231.91,137.176"/>
  </g>
  <g>
    <path style="fill: none; fill-opacity:0; stroke-width: 2; stroke: #000000" d="M -666.59,615.728 A 13.3342,13.3342 0 1 0 -682.834,603.972"/>
    <path style="fill: #000000" d="M -682.834 603.972 C -685.323,604.205 -688.045,601.949 -688.279,599.46 C -688.512,596.971 -686.256,594.249 -683.767,594.016 C -681.278,593.782 -678.555,596.038 -678.322,598.527 C -678.089,601.017 -680.345,603.739 -682.834,603.972z"/>
    <path style="fill: none; fill-opacity:0; stroke-width: 2; stroke: #000000" d="M -682.834 603.972 C -685.323,604.205 -688.045,601.949 -688.279,599.46 C -688.512,596.971 -686.256,594.249 -683.767,594.016 C -681.278,593.782 -678.555,596.038 -678.322,598.527 C -678.089,601.017 -680.345,603.739 -682.834,603.972"/>
  </g>
  <g>
    <path style="fill: none; fill-opacity:0; stroke-width: 2; stroke: #000000" d="M -536.014,798.076 A 14.3399,14.3399 0 1 0 -524.524,781.458"/>
    <path style="fill: #000000" d="M -524.524 781.458 C -524.982,779 -522.982,776.085 -520.524,775.627 C -518.067,775.169 -515.151,777.169 -514.693,779.626 C -514.235,782.084 -516.235,785 -518.693,785.458 C -521.15,785.915 -524.066,783.916 -524.524,781.458z"/>
    <path style="fill: none; fill-opacity:0; stroke-width: 2; stroke: #000000" d="M -524.524 781.458 C -524.982,779 -522.982,776.085 -520.524,775.627 C -518.067,775.169 -515.151,777.169 -514.693,779.626 C -514.235,782.084 -516.235,785 -518.693,785.458 C -521.15,785.915 -524.066,783.916 -524.524,781.458"/>
  </g>
  <g>
    <path style="fill: none; fill-opacity:0; stroke-width: 2; stroke: #1e90ff" d="M 571.241,261.854 A 326.462,326.462 0 0 0 710.314,287.828"/>
    <polyline style="fill: none; fill-opacity:0; stroke-width: 2; stroke: #1e90ff" points="580.353,260.453 569.185,260.977 576.305,269.597 "/>
  </g>
  <g>
    <line style="fill: none; fill-opacity:0; stroke-width: 2; stroke: #ff0000" x1="-612.778" y1="895.296" x2="-581.976" y2="831.31"/>
    <path style="fill: #ff0000" d="M -581.976 831.31 C -579.723,832.394 -578.555,835.731 -579.64,837.984 C -580.724,840.236 -584.061,841.405 -586.313,840.32 C -588.566,839.236 -589.734,835.899 -588.65,833.646 C -587.566,831.394 -584.229,830.226 -581.976,831.31z"/>
    <path style="fill: none; fill-opacity:0; stroke-width: 2; stroke: #ff0000" d="M -581.976 831.31 C -579.723,832.394 -578.555,835.731 -579.64,837.984 C -580.724,840.236 -584.061,841.405 -586.313,840.32 C -588.566,839.236 -589.734,835.899 -588.65,833.646 C -587.566,831.394 -584.229,830.226 -581.976,831.31"/>
  </g>
  <g>
    <line style="fill: none; fill-opacity:0; stroke-width: 2; stroke: #1e90ff" x1="-526.348" y1="1003.01" x2="-587.632" y2="926.858"/>
    <polyline style="fill: none; fill-opacity:0; stroke-width: 2; stroke: #1e90ff" points="-578.869,929.772 -589.034,925.116 -586.66,936.041 "/>
  </g>
  <g>
    <path style="fill: none; fill-opacity:0; stroke-width: 2; stroke: #000000" d="M -665.482,927.106 A 13.7506,13.7506 0 1 0 -639.13,928.416"/>
    <path style="fill: #000000" d="M -639.13 928.416 C -636.699,927.831 -633.684,929.676 -633.099,932.107 C -632.513,934.537 -634.359,937.553 -636.789,938.138 C -639.22,938.723 -642.236,936.878 -642.821,934.447 C -643.406,932.017 -641.561,929.001 -639.13,928.416z"/>
    <path style="fill: none; fill-opacity:0; stroke-width: 2; stroke: #000000" d="M -639.13 928.416 C -636.699,927.831 -633.684,929.676 -633.099,932.107 C -632.513,934.537 -634.359,937.553 -636.789,938.138 C -639.22,938.723 -642.236,936.878 -642.821,934.447 C -643.406,932.017 -641.561,929.001 -639.13,928.416"/>
  </g>
  <g>
    <path style="fill: none; fill-opacity:0; stroke-width: 2; stroke: #ff0000" d="M -458.13,1054.24 A 447.839,447.839 0 0 0 69.7844,925.116"/>
    <path style="fill: #ff0000" d="M 69.7844 925.116 C 71.7301,926.686 72.1058,930.201 70.536,932.147 C 68.9661,934.093 65.4506,934.468 63.505,932.899 C 61.5593,931.329 61.1835,927.813 62.7534,925.868 C 64.3232,923.922 67.8387,923.546 69.7844,925.116z"/>
    <path style="fill: none; fill-opacity:0; stroke-width: 2; stroke: #ff0000" d="M 69.7844 925.116 C 71.7301,926.686 72.1058,930.201 70.536,932.147 C 68.9661,934.093 65.4506,934.468 63.505,932.899 C 61.5593,931.329 61.1835,927.813 62.7534,925.868 C 64.3232,923.922 67.8387,923.546 69.7844,925.116"/>
  </g>
  <g>
    <path style="fill: none; fill-opacity:0; stroke-width: 2; stroke: #ff0000" d="M -289.802,395.134 A 347.522,347.522 0 1 0 -509.292,1041.43"/>
    <path style="fill: #ff0000" d="M -289.802 395.134 C -291.038,397.307 -294.447,398.244 -296.62,397.007 C -298.793,395.771 -299.73,392.362 -298.494,390.189 C -297.258,388.016 -293.848,387.079 -291.675,388.316 C -289.502,389.552 -288.566,392.961 -289.802,395.134z"/>
    <path style="fill: none; fill-opacity:0; stroke-width: 2; stroke: #ff0000" d="M -289.802 395.134 C -291.038,397.307 -294.447,398.244 -296.62,397.007 C -298.793,395.771 -299.73,392.362 -298.494,390.189 C -297.258,388.016 -293.848,387.079 -291.675,388.316 C -289.502,389.552 -288.566,392.961 -289.802,395.134"/>
  </g>
  <g>
    <path style="fill: none; fill-opacity:0; stroke-width: 2; stroke: #ff0000" d="M -441.074,1041.43 A 258.046,258.046 0 0 0 -217.822,1001.91"/>
    <path style="fill: #ff0000" d="M -217.822 1001.91 C -216.349,1003.93 -216.896,1007.42 -218.916,1008.89 C -220.936,1010.36 -224.429,1009.82 -225.902,1007.8 C -227.375,1005.78 -226.828,1002.29 -224.808,1000.81 C -222.788,999.339 -219.295,999.886 -217.822,1001.91z"/>
    <path style="fill: none; fill-opacity:0; stroke-width: 2; stroke: #ff0000" d="M -217.822 1001.91 C -216.349,1003.93 -216.896,1007.42 -218.916,1008.89 C -220.936,1010.36 -224.429,1009.82 -225.902,1007.8 C -227.375,1005.78 -226.828,1002.29 -224.808,1000.81 C -222.788,999.339 -219.295,999.886 -217.822,1001.91"/>
  </g>
  <g>
    <path style="fill: none; fill-opacity:0; stroke-width: 2; stroke: #a020f0" d="M 140.931,369.21 A 179.782,179.782 0 0 0 219.332,593.721"/>
    <path style="fill: #a020f0" d="M 140.931 369.21 C 143.246,370.153 144.619,373.411 143.676,375.726 C 142.733,378.042 139.475,379.414 137.16,378.472 C 134.844,377.529 133.472,374.271 134.414,371.955 C 135.357,369.64 138.615,368.267 140.931,369.21z"/>
    <path style="fill: none; fill-opacity:0; stroke-width: 2; stroke: #a020f0" d="M 140.931 369.21 C 143.246,370.153 144.619,373.411 143.676,375.726 C 142.733,378.042 139.475,379.414 137.16,378.472 C 134.844,377.529 133.472,374.271 134.414,371.955 C 135.357,369.64 138.615,368.267 140.931,369.21"/>
    <polyline style="fill: none; fill-opacity:0; stroke-width: 2; stroke: #a020f0" points="210.103,594.552 221.28,594.817 214.785,585.717 "/>
  </g>
  <g>
    <line style="fill: none; fill-opacity:0; stroke-width: 2; stroke: #ff0000" x1="-633.974" y1="639.532" x2="-556.662" y2="591.954"/>
    <path style="fill: #ff0000" d="M -556.662 591.954 C -555.352,594.083 -556.171,597.523 -558.3,598.833 C -560.429,600.143 -563.868,599.324 -565.179,597.195 C -566.489,595.066 -565.67,591.627 -563.541,590.316 C -561.412,589.006 -557.972,589.825 -556.662,591.954z"/>
    <path style="fill: none; fill-opacity:0; stroke-width: 2; stroke: #ff0000" d="M -556.662 591.954 C -555.352,594.083 -556.171,597.523 -558.3,598.833 C -560.429,600.143 -563.868,599.324 -565.179,597.195 C -566.489,595.066 -565.67,591.627 -563.541,590.316 C -561.412,589.006 -557.972,589.825 -556.662,591.954"/>
  </g>
  <g>
    <line style="fill: none; fill-opacity:0; stroke-width: 2; stroke: #1e90ff" x1="-760.438" y1="201.906" x2="-603.91" y2="202.878"/>
    <polyline style="fill: none; fill-opacity:0; stroke-width: 2; stroke: #1e90ff" points="-611.705,207.83 -601.674,202.892 -611.643,197.83 "/>
  </g>
  <text font-size="19.1911" style="fill: #000000;text-anchor:start;font-family:sans-serif;font-style:normal;font-weight:normal" x="-588.438" y="207.906">
    <tspan x="-588.438" y="207.906">Positive Interaction in the Direction of the Arrow</tspan>
  </text>
  <g>
    <line style="fill: none; fill-opacity:0; stroke-width: 2; stroke: #ff0000" x1="-756.438" y1="231.906" x2="-601.438" y2="230.906"/>
    <path style="fill: #ff0000" d="M -601.438 230.906 C -601.422,233.406 -603.906,235.922 -606.406,235.938 C -608.906,235.954 -611.422,233.47 -611.438,230.971 C -611.454,228.471 -608.97,225.954 -606.47,225.938 C -603.97,225.922 -601.454,228.406 -601.438,230.906z"/>
    <path style="fill: none; fill-opacity:0; stroke-width: 2; stroke: #ff0000" d="M -601.438 230.906 C -601.422,233.406 -603.906,235.922 -606.406,235.938 C -608.906,235.954 -611.422,233.47 -611.438,230.971 C -611.454,228.471 -608.97,225.954 -606.47,225.938 C -603.97,225.922 -601.454,228.406 -601.438,230.906"/>
  </g>
  <text font-size="19.1911" style="fill: #000000;text-anchor:start;font-family:sans-serif;font-style:normal;font-weight:normal" x="-587.538" y="236.206">
    <tspan x="-587.538" y="236.206">Negative Interaction in the Direction of the Dot</tspan>
  </text>
  <g>
    <line style="fill: none; fill-opacity:0; stroke-width: 2; stroke: #a020f0" x1="-752.966" y1="258.906" x2="-601.438" y2="258.906"/>
    <polyline style="fill: none; fill-opacity:0; stroke-width: 2; stroke: #a020f0" points="-745.202,253.906 -755.202,258.906 -745.202,263.906 "/>
    <path style="fill: #a020f0" d="M -601.438 258.906 C -601.438,261.406 -603.938,263.906 -606.438,263.906 C -608.938,263.906 -611.438,261.406 -611.438,258.906 C -611.438,256.406 -608.938,253.906 -606.438,253.906 C -603.938,253.906 -601.438,256.406 -601.438,258.906z"/>
    <path style="fill: none; fill-opacity:0; stroke-width: 2; stroke: #a020f0" d="M -601.438 258.906 C -601.438,261.406 -603.938,263.906 -606.438,263.906 C -608.938,263.906 -611.438,261.406 -611.438,258.906 C -611.438,256.406 -608.938,253.906 -606.438,253.906 C -603.938,253.906 -601.438,256.406 -601.438,258.906"/>
  </g>
  <text font-size="19.1911" style="fill: #000000;text-anchor:start;font-family:sans-serif;font-style:normal;font-weight:normal" x="-586.538" y="264.206">
    <tspan x="-586.538" y="264.206">Bi-Directional Interaction</tspan>
  </text>
  <g>
    <line style="fill: none; fill-opacity:0; stroke-width: 2; stroke: #0000ff" x1="-756.058" y1="288.12" x2="-604.002" y2="289.064"/>
    <polyline style="fill: none; fill-opacity:0; stroke-width: 2; stroke: #0000ff" points="-748.263,283.168 -758.294,288.106 -748.325,293.168 "/>
    <polyline style="fill: none; fill-opacity:0; stroke-width: 2; stroke: #0000ff" points="-611.797,294.016 -601.766,289.078 -611.735,284.016 "/>
  </g>
  <text font-size="19.1911" style="fill: #000000;text-anchor:start;font-family:sans-serif;font-style:normal;font-weight:normal" x="-587.538" y="294.206">
    <tspan x="-587.538" y="294.206">Positive Feedback</tspan>
  </text>
  <g>
    <path style="fill: none; fill-opacity:0; stroke-width: 2; stroke: #000000" d="M -666.818,331.984 A 15.876,15.876 0 1 0 -693.438,332.906"/>
    <path style="fill: #000000" d="M -693.438 332.906 C -695.487,334.339 -698.968,333.722 -700.401,331.674 C -701.833,329.625 -701.217,326.143 -699.168,324.711 C -697.12,323.278 -693.638,323.894 -692.206,325.943 C -690.773,327.992 -691.389,331.473 -693.438,332.906z"/>
    <path style="fill: none; fill-opacity:0; stroke-width: 2; stroke: #000000" d="M -693.438 332.906 C -695.487,334.339 -698.968,333.722 -700.401,331.674 C -701.833,329.625 -701.217,326.143 -699.168,324.711 C -697.12,323.278 -693.638,323.894 -692.206,325.943 C -690.773,327.992 -691.389,331.473 -693.438,332.906"/>
  </g>
  <text font-size="19.1911" style="fill: #000000;text-anchor:start;font-family:sans-serif;font-style:normal;font-weight:normal" x="-589.538" y="323.206">
    <tspan x="-589.538" y="323.206">Self-Regulating Loop</tspan>
  </text>
  <g>
    <polygon style="fill: #ffffff" points="810.04,367.104 879.837,434.166 810.04,501.229 740.242,434.166 "/>
    <polygon style="fill: none; fill-opacity:0; stroke-width: 2; stroke: #000000" points="810.04,367.104 879.837,434.166 810.04,501.229 740.242,434.166 "/>
    <text font-size="12.8" style="fill: #000000;text-anchor:middle;font-family:sans-serif;font-style:normal;font-weight:normal" x="810.04" y="438.966">
      <tspan x="810.04" y="438.966">Global Warming</tspan>
    </text>
  </g>
  <g>
    <polygon style="fill: #ffffff" points="-359.975,457.384 -303.887,491.441 -359.975,525.498 -416.064,491.441 "/>
    <polygon style="fill: none; fill-opacity:0; stroke-width: 2; stroke: #000000" points="-359.975,457.384 -303.887,491.441 -359.975,525.498 -416.064,491.441 "/>
    <text font-size="12.8" style="fill: #000000;text-anchor:middle;font-family:sans-serif;font-style:normal;font-weight:normal" x="-359.975" y="496.241">
      <tspan x="-359.975" y="496.241">Harvest</tspan>
    </text>
  </g>
  <g>
    <polygon style="fill: #ffffff" points="-682.835,604.44 -617.688,651.23 -682.835,698.021 -747.982,651.23 "/>
    <polygon style="fill: none; fill-opacity:0; stroke-width: 2; stroke: #000000" points="-682.835,604.44 -617.688,651.23 -682.835,698.021 -747.982,651.23 "/>
    <text font-size="12.8" style="fill: #000000;text-anchor:middle;font-family:sans-serif;font-style:normal;font-weight:normal" x="-682.835" y="656.03">
      <tspan x="-682.835" y="656.03">Habitat Loss</tspan>
    </text>
  </g>
  <g>
    <polygon style="fill: #ffffff" points="-732.619,700.574 -674.13,745.999 -732.619,791.425 -791.108,745.999 "/>
    <polygon style="fill: none; fill-opacity:0; stroke-width: 2; stroke: #000000" points="-732.619,700.574 -674.13,745.999 -732.619,791.425 -791.108,745.999 "/>
    <text font-size="12.8" style="fill: #000000;text-anchor:middle;font-family:sans-serif;font-style:normal;font-weight:normal" x="-732.619" y="750.799">
      <tspan x="-732.619" y="750.799">Hatcheries</tspan>
    </text>
  </g>
  <g>
    <polygon style="fill: #ffffff" points="-475.184,964.578 -406.966,1015.82 -475.184,1067.05 -543.402,1015.82 "/>
    <polygon style="fill: none; fill-opacity:0; stroke-width: 2; stroke: #000000" points="-475.184,964.578 -406.966,1015.82 -475.184,1067.05 -543.402,1015.82 "/>
    <text font-size="12.8" style="fill: #000000;text-anchor:middle;font-family:sans-serif;font-style:normal;font-weight:normal" x="-475.184" y="1020.62">
      <tspan x="-475.184" y="1020.62">Contaminants</tspan>
    </text>
  </g>
  <g>
    <ellipse style="fill: #ffffff" cx="-639.129" cy="911.202" rx="68.8629" ry="17.2157"/>
    <ellipse style="fill: none; fill-opacity:0; stroke-width: 2; stroke: #000000" cx="-639.129" cy="911.202" rx="68.8629" ry="17.2157"/>
    <text font-size="12.8" style="fill: #000000;text-anchor:middle;font-family:sans-serif;font-style:normal;font-weight:normal" x="-639.129" y="916.002">
      <tspan x="-639.129" y="916.002">Disease</tspan>
    </text>
  </g>
  <g>
    <polygon style="fill: #ffffff" points="-493.24,834.5 -398.264,834.5 -445.752,910.868 "/>
    <polygon style="fill: none; fill-opacity:0; stroke-width: 2; stroke: #000000" points="-493.24,834.5 -398.264,834.5 -445.752,910.868 "/>
    <text font-size="12.8" style="fill: #000000;text-anchor:middle;font-family:sans-serif;font-style:normal;font-weight:normal" x="-445.752" y="858.392">
      <tspan x="-445.752" y="858.392">Size </tspan>
    </text>
  </g>
  <g>
    <polygon style="fill: #ffffff" points="-572.324,570.74 -447.024,570.74 -509.674,655.593 "/>
    <polygon style="fill: none; fill-opacity:0; stroke-width: 2; stroke: #000000" points="-572.324,570.74 -447.024,570.74 -509.674,655.593 "/>
    <text font-size="12.8" style="fill: #000000;text-anchor:middle;font-family:sans-serif;font-style:normal;font-weight:normal" x="-509.674" y="596.753">
      <tspan x="-509.674" y="596.753">Residency</tspan>
    </text>
  </g>
  <g>
    <path style="fill: #ffffff" d="M -432.803 663.322 L -338.109,663.322 L -319.171,713.286 L -338.109,763.25 L -432.803,763.25 L -451.742,713.286 L -432.803,663.322z"/>
    <path style="fill: none; fill-opacity:0; stroke-width: 2; stroke: #000000" d="M -432.803 663.322 L -338.109,663.322 L -319.171,713.286 L -338.109,763.25 L -432.803,763.25 L -451.742,713.286 L -432.803,663.322"/>
    <text font-size="12.8" style="fill: #000000;text-anchor:middle;font-family:sans-serif;font-style:normal;font-weight:normal" x="-385.456" y="718.086">
      <tspan x="-385.456" y="718.086">Survival </tspan>
    </text>
  </g>
  <g>
    <polygon style="fill: #ffffff" points="-616.448,781.458 -524.524,781.458 -570.486,847.926 "/>
    <polygon style="fill: none; fill-opacity:0; stroke-width: 2; stroke: #000000" points="-616.448,781.458 -524.524,781.458 -570.486,847.926 "/>
    <text font-size="12.8" style="fill: #000000;text-anchor:middle;font-family:sans-serif;font-style:normal;font-weight:normal" x="-570.486" y="802.875">
      <tspan x="-570.486" y="802.875">Fitness</tspan>
    </text>
  </g>
  <g>
    <polygon style="fill: #ffffff" points="-385.212,567.984 -247.812,567.984 -316.512,639.28 "/>
    <polygon style="fill: none; fill-opacity:0; stroke-width: 2; stroke: #000000" points="-385.212,567.984 -247.812,567.984 -316.512,639.28 "/>
    <text font-size="12.8" style="fill: #000000;text-anchor:middle;font-family:sans-serif;font-style:normal;font-weight:normal" x="-316.512" y="590.608">
      <tspan x="-316.512" y="590.608">Abundance</tspan>
    </text>
  </g>
</svg>
